<svg height="885pt" viewBox="0.00 0.00 820.00 885.00" width="820pt" xmlns="http://www.w3.org/2000/svg" xmlns:xlink="http://www.w3.org/1999/xlink">
<g class="graph" id="graph0" transform="scale(1 1) rotate(0) translate(4 881)">
<title>G</title>
<polygon fill="white" points="-4,4 -4,-881 816,-881 816,4 -4,4" stroke="none"/>
<!-- 140312321771112 -->
<g class="node" id="node1"><title>140312321771112</title>
<polygon fill="none" points="92,-830.5 92,-876.5 355,-876.5 355,-830.5 92,-830.5" stroke="black"/>
<text font-family="Times,serif" font-size="14.00" text-anchor="middle" x="154.5" y="-849.8">input_4: InputLayer</text>
<polyline fill="none" points="217,-830.5 217,-876.5 " stroke="black"/>
<text font-family="Times,serif" font-size="14.00" text-anchor="middle" x="244.5" y="-861.3">input:</text>
<polyline fill="none" points="217,-853.5 272,-853.5 " stroke="black"/>
<text font-family="Times,serif" font-size="14.00" text-anchor="middle" x="244.5" y="-838.3">output:</text>
<polyline fill="none" points="272,-830.5 272,-876.5 " stroke="black"/>
<text font-family="Times,serif" font-size="14.00" text-anchor="middle" x="313.5" y="-861.3">(None, 100)</text>
<polyline fill="none" points="272,-853.5 355,-853.5 " stroke="black"/>
<text font-family="Times,serif" font-size="14.00" text-anchor="middle" x="313.5" y="-838.3">(None, 100)</text>
</g>
<!-- 140312321772232 -->
<g class="node" id="node2"><title>140312321772232</title>
<polygon fill="none" points="100.5,-747.5 100.5,-793.5 346.5,-793.5 346.5,-747.5 100.5,-747.5" stroke="black"/>
<text font-family="Times,serif" font-size="14.00" text-anchor="middle" x="151.5" y="-766.8">dense_4: Dense</text>
<polyline fill="none" points="202.5,-747.5 202.5,-793.5 " stroke="black"/>
<text font-family="Times,serif" font-size="14.00" text-anchor="middle" x="230" y="-778.3">input:</text>
<polyline fill="none" points="202.5,-770.5 257.5,-770.5 " stroke="black"/>
<text font-family="Times,serif" font-size="14.00" text-anchor="middle" x="230" y="-755.3">output:</text>
<polyline fill="none" points="257.5,-747.5 257.5,-793.5 " stroke="black"/>
<text font-family="Times,serif" font-size="14.00" text-anchor="middle" x="302" y="-778.3">(None, 100)</text>
<polyline fill="none" points="257.5,-770.5 346.5,-770.5 " stroke="black"/>
<text font-family="Times,serif" font-size="14.00" text-anchor="middle" x="302" y="-755.3">(None, 1024)</text>
</g>
<!-- 140312321771112&#45;&gt;140312321772232 -->
<g class="edge" id="edge1"><title>140312321771112-&gt;140312321772232</title>
<path d="M223.5,-830.366C223.5,-822.152 223.5,-812.658 223.5,-803.725" fill="none" stroke="black"/>
<polygon fill="black" points="227,-803.607 223.5,-793.607 220,-803.607 227,-803.607" stroke="black"/>
</g>
<!-- 140312321228304 -->
<g class="node" id="node4"><title>140312321228304</title>
<polygon fill="none" points="77.5,-664.5 77.5,-710.5 369.5,-710.5 369.5,-664.5 77.5,-664.5" stroke="black"/>
<text font-family="Times,serif" font-size="14.00" text-anchor="middle" x="151.5" y="-683.8">activation_6: Activation</text>
<polyline fill="none" points="225.5,-664.5 225.5,-710.5 " stroke="black"/>
<text font-family="Times,serif" font-size="14.00" text-anchor="middle" x="253" y="-695.3">input:</text>
<polyline fill="none" points="225.5,-687.5 280.5,-687.5 " stroke="black"/>
<text font-family="Times,serif" font-size="14.00" text-anchor="middle" x="253" y="-672.3">output:</text>
<polyline fill="none" points="280.5,-664.5 280.5,-710.5 " stroke="black"/>
<text font-family="Times,serif" font-size="14.00" text-anchor="middle" x="325" y="-695.3">(None, 1024)</text>
<polyline fill="none" points="280.5,-687.5 369.5,-687.5 " stroke="black"/>
<text font-family="Times,serif" font-size="14.00" text-anchor="middle" x="325" y="-672.3">(None, 1024)</text>
</g>
<!-- 140312321772232&#45;&gt;140312321228304 -->
<g class="edge" id="edge2"><title>140312321772232-&gt;140312321228304</title>
<path d="M223.5,-747.366C223.5,-739.152 223.5,-729.658 223.5,-720.725" fill="none" stroke="black"/>
<polygon fill="black" points="227,-720.607 223.5,-710.607 220,-720.607 227,-720.607" stroke="black"/>
</g>
<!-- 140312320950736 -->
<g class="node" id="node3"><title>140312320950736</title>
<polygon fill="none" points="484,-664.5 484,-710.5 775,-710.5 775,-664.5 484,-664.5" stroke="black"/>
<text font-family="Times,serif" font-size="14.00" text-anchor="middle" x="546.5" y="-683.8">input_3: InputLayer</text>
<polyline fill="none" points="609,-664.5 609,-710.5 " stroke="black"/>
<text font-family="Times,serif" font-size="14.00" text-anchor="middle" x="636.5" y="-695.3">input:</text>
<polyline fill="none" points="609,-687.5 664,-687.5 " stroke="black"/>
<text font-family="Times,serif" font-size="14.00" text-anchor="middle" x="636.5" y="-672.3">output:</text>
<polyline fill="none" points="664,-664.5 664,-710.5 " stroke="black"/>
<text font-family="Times,serif" font-size="14.00" text-anchor="middle" x="719.5" y="-695.3">(None, 28, 28, 1)</text>
<polyline fill="none" points="664,-687.5 775,-687.5 " stroke="black"/>
<text font-family="Times,serif" font-size="14.00" text-anchor="middle" x="719.5" y="-672.3">(None, 28, 28, 1)</text>
</g>
<!-- 140312320933728 -->
<g class="node" id="node5"><title>140312320933728</title>
<polygon fill="none" points="478,-581.5 478,-627.5 781,-627.5 781,-581.5 478,-581.5" stroke="black"/>
<text font-family="Times,serif" font-size="14.00" text-anchor="middle" x="539.5" y="-600.8">conv2d_3: Conv2D</text>
<polyline fill="none" points="601,-581.5 601,-627.5 " stroke="black"/>
<text font-family="Times,serif" font-size="14.00" text-anchor="middle" x="628.5" y="-612.3">input:</text>
<polyline fill="none" points="601,-604.5 656,-604.5 " stroke="black"/>
<text font-family="Times,serif" font-size="14.00" text-anchor="middle" x="628.5" y="-589.3">output:</text>
<polyline fill="none" points="656,-581.5 656,-627.5 " stroke="black"/>
<text font-family="Times,serif" font-size="14.00" text-anchor="middle" x="718.5" y="-612.3">(None, 28, 28, 1)</text>
<polyline fill="none" points="656,-604.5 781,-604.5 " stroke="black"/>
<text font-family="Times,serif" font-size="14.00" text-anchor="middle" x="718.5" y="-589.3">(None, 24, 24, 128)</text>
</g>
<!-- 140312320950736&#45;&gt;140312320933728 -->
<g class="edge" id="edge3"><title>140312320950736-&gt;140312320933728</title>
<path d="M629.5,-664.366C629.5,-656.152 629.5,-646.658 629.5,-637.725" fill="none" stroke="black"/>
<polygon fill="black" points="633,-637.607 629.5,-627.607 626,-637.607 633,-637.607" stroke="black"/>
</g>
<!-- 140312320776960 -->
<g class="node" id="node6"><title>140312320776960</title>
<polygon fill="none" points="97,-581.5 97,-627.5 350,-627.5 350,-581.5 97,-581.5" stroke="black"/>
<text font-family="Times,serif" font-size="14.00" text-anchor="middle" x="148" y="-600.8">dense_5: Dense</text>
<polyline fill="none" points="199,-581.5 199,-627.5 " stroke="black"/>
<text font-family="Times,serif" font-size="14.00" text-anchor="middle" x="226.5" y="-612.3">input:</text>
<polyline fill="none" points="199,-604.5 254,-604.5 " stroke="black"/>
<text font-family="Times,serif" font-size="14.00" text-anchor="middle" x="226.5" y="-589.3">output:</text>
<polyline fill="none" points="254,-581.5 254,-627.5 " stroke="black"/>
<text font-family="Times,serif" font-size="14.00" text-anchor="middle" x="302" y="-612.3">(None, 1024)</text>
<polyline fill="none" points="254,-604.5 350,-604.5 " stroke="black"/>
<text font-family="Times,serif" font-size="14.00" text-anchor="middle" x="302" y="-589.3">(None, 18432)</text>
</g>
<!-- 140312321228304&#45;&gt;140312320776960 -->
<g class="edge" id="edge4"><title>140312321228304-&gt;140312320776960</title>
<path d="M223.5,-664.366C223.5,-656.152 223.5,-646.658 223.5,-637.725" fill="none" stroke="black"/>
<polygon fill="black" points="227,-637.607 223.5,-627.607 220,-637.607 227,-637.607" stroke="black"/>
</g>
<!-- 140312320930984 -->
<g class="node" id="node7"><title>140312320930984</title>
<polygon fill="none" points="465.5,-498.5 465.5,-544.5 793.5,-544.5 793.5,-498.5 465.5,-498.5" stroke="black"/>
<text font-family="Times,serif" font-size="14.00" text-anchor="middle" x="539.5" y="-517.8">activation_5: Activation</text>
<polyline fill="none" points="613.5,-498.5 613.5,-544.5 " stroke="black"/>
<text font-family="Times,serif" font-size="14.00" text-anchor="middle" x="641" y="-529.3">input:</text>
<polyline fill="none" points="613.5,-521.5 668.5,-521.5 " stroke="black"/>
<text font-family="Times,serif" font-size="14.00" text-anchor="middle" x="641" y="-506.3">output:</text>
<polyline fill="none" points="668.5,-498.5 668.5,-544.5 " stroke="black"/>
<text font-family="Times,serif" font-size="14.00" text-anchor="middle" x="731" y="-529.3">(None, 24, 24, 128)</text>
<polyline fill="none" points="668.5,-521.5 793.5,-521.5 " stroke="black"/>
<text font-family="Times,serif" font-size="14.00" text-anchor="middle" x="731" y="-506.3">(None, 24, 24, 128)</text>
</g>
<!-- 140312320933728&#45;&gt;140312320930984 -->
<g class="edge" id="edge5"><title>140312320933728-&gt;140312320930984</title>
<path d="M629.5,-581.366C629.5,-573.152 629.5,-563.658 629.5,-554.725" fill="none" stroke="black"/>
<polygon fill="black" points="633,-554.607 629.5,-544.607 626,-554.607 633,-554.607" stroke="black"/>
</g>
<!-- 140312320777520 -->
<g class="node" id="node8"><title>140312320777520</title>
<polygon fill="none" points="0,-498.5 0,-544.5 447,-544.5 447,-498.5 0,-498.5" stroke="black"/>
<text font-family="Times,serif" font-size="14.00" text-anchor="middle" x="148" y="-517.8">batch_normalization_v1_2: BatchNormalizationV1</text>
<polyline fill="none" points="296,-498.5 296,-544.5 " stroke="black"/>
<text font-family="Times,serif" font-size="14.00" text-anchor="middle" x="323.5" y="-529.3">input:</text>
<polyline fill="none" points="296,-521.5 351,-521.5 " stroke="black"/>
<text font-family="Times,serif" font-size="14.00" text-anchor="middle" x="323.5" y="-506.3">output:</text>
<polyline fill="none" points="351,-498.5 351,-544.5 " stroke="black"/>
<text font-family="Times,serif" font-size="14.00" text-anchor="middle" x="399" y="-529.3">(None, 18432)</text>
<polyline fill="none" points="351,-521.5 447,-521.5 " stroke="black"/>
<text font-family="Times,serif" font-size="14.00" text-anchor="middle" x="399" y="-506.3">(None, 18432)</text>
</g>
<!-- 140312320776960&#45;&gt;140312320777520 -->
<g class="edge" id="edge6"><title>140312320776960-&gt;140312320777520</title>
<path d="M223.5,-581.366C223.5,-573.152 223.5,-563.658 223.5,-554.725" fill="none" stroke="black"/>
<polygon fill="black" points="227,-554.607 223.5,-544.607 220,-554.607 227,-554.607" stroke="black"/>
</g>
<!-- 140312321131856 -->
<g class="node" id="node9"><title>140312321131856</title>
<polygon fill="none" points="425,-415.5 425,-461.5 812,-461.5 812,-415.5 425,-415.5" stroke="black"/>
<text font-family="Times,serif" font-size="14.00" text-anchor="middle" x="528.5" y="-434.8">max_pooling2d_1: MaxPooling2D</text>
<polyline fill="none" points="632,-415.5 632,-461.5 " stroke="black"/>
<text font-family="Times,serif" font-size="14.00" text-anchor="middle" x="659.5" y="-446.3">input:</text>
<polyline fill="none" points="632,-438.5 687,-438.5 " stroke="black"/>
<text font-family="Times,serif" font-size="14.00" text-anchor="middle" x="659.5" y="-423.3">output:</text>
<polyline fill="none" points="687,-415.5 687,-461.5 " stroke="black"/>
<text font-family="Times,serif" font-size="14.00" text-anchor="middle" x="749.5" y="-446.3">(None, 24, 24, 128)</text>
<polyline fill="none" points="687,-438.5 812,-438.5 " stroke="black"/>
<text font-family="Times,serif" font-size="14.00" text-anchor="middle" x="749.5" y="-423.3">(None, 12, 12, 128)</text>
</g>
<!-- 140312320930984&#45;&gt;140312321131856 -->
<g class="edge" id="edge7"><title>140312320930984-&gt;140312321131856</title>
<path d="M626.494,-498.366C625.379,-490.152 624.089,-480.658 622.876,-471.725" fill="none" stroke="black"/>
<polygon fill="black" points="626.316,-471.045 621.502,-461.607 619.38,-471.987 626.316,-471.045" stroke="black"/>
</g>
<!-- 140312320933168 -->
<g class="node" id="node10"><title>140312320933168</title>
<polygon fill="none" points="92,-415.5 92,-461.5 397,-461.5 397,-415.5 92,-415.5" stroke="black"/>
<text font-family="Times,serif" font-size="14.00" text-anchor="middle" x="154.5" y="-434.8">reshape_2: Reshape</text>
<polyline fill="none" points="217,-415.5 217,-461.5 " stroke="black"/>
<text font-family="Times,serif" font-size="14.00" text-anchor="middle" x="244.5" y="-446.3">input:</text>
<polyline fill="none" points="217,-438.5 272,-438.5 " stroke="black"/>
<text font-family="Times,serif" font-size="14.00" text-anchor="middle" x="244.5" y="-423.3">output:</text>
<polyline fill="none" points="272,-415.5 272,-461.5 " stroke="black"/>
<text font-family="Times,serif" font-size="14.00" text-anchor="middle" x="334.5" y="-446.3">(None, 18432)</text>
<polyline fill="none" points="272,-438.5 397,-438.5 " stroke="black"/>
<text font-family="Times,serif" font-size="14.00" text-anchor="middle" x="334.5" y="-423.3">(None, 12, 12, 128)</text>
</g>
<!-- 140312320777520&#45;&gt;140312320933168 -->
<g class="edge" id="edge8"><title>140312320777520-&gt;140312320933168</title>
<path d="M229.238,-498.366C231.391,-490.062 233.883,-480.451 236.221,-471.434" fill="none" stroke="black"/>
<polygon fill="black" points="239.647,-472.165 238.769,-461.607 232.871,-470.408 239.647,-472.165" stroke="black"/>
</g>
<!-- 140312320775336 -->
<g class="node" id="node11"><title>140312320775336</title>
<polygon fill="none" points="195.5,-332.5 195.5,-378.5 667.5,-378.5 667.5,-332.5 195.5,-332.5" stroke="black"/>
<text font-family="Times,serif" font-size="14.00" text-anchor="middle" x="279.5" y="-351.8">concatenate_1: Concatenate</text>
<polyline fill="none" points="363.5,-332.5 363.5,-378.5 " stroke="black"/>
<text font-family="Times,serif" font-size="14.00" text-anchor="middle" x="391" y="-363.3">input:</text>
<polyline fill="none" points="363.5,-355.5 418.5,-355.5 " stroke="black"/>
<text font-family="Times,serif" font-size="14.00" text-anchor="middle" x="391" y="-340.3">output:</text>
<polyline fill="none" points="418.5,-332.5 418.5,-378.5 " stroke="black"/>
<text font-family="Times,serif" font-size="14.00" text-anchor="middle" x="543" y="-363.3">[(None, 12, 12, 128), (None, 12, 12, 128)]</text>
<polyline fill="none" points="418.5,-355.5 667.5,-355.5 " stroke="black"/>
<text font-family="Times,serif" font-size="14.00" text-anchor="middle" x="543" y="-340.3">(None, 12, 12, 256)</text>
</g>
<!-- 140312321131856&#45;&gt;140312320775336 -->
<g class="edge" id="edge9"><title>140312321131856-&gt;140312320775336</title>
<path d="M567.401,-415.366C544.108,-405.277 516.359,-393.257 492.027,-382.718" fill="none" stroke="black"/>
<polygon fill="black" points="493.104,-379.37 482.537,-378.607 490.322,-385.793 493.104,-379.37" stroke="black"/>
</g>
<!-- 140312320933168&#45;&gt;140312320775336 -->
<g class="edge" id="edge10"><title>140312320933168-&gt;140312320775336</title>
<path d="M295.599,-415.366C318.892,-405.277 346.641,-393.257 370.973,-382.718" fill="none" stroke="black"/>
<polygon fill="black" points="372.678,-385.793 380.463,-378.607 369.896,-379.37 372.678,-385.793" stroke="black"/>
</g>
<!-- 140312321312584 -->
<g class="node" id="node12"><title>140312321312584</title>
<polygon fill="none" points="293.5,-249.5 293.5,-295.5 569.5,-295.5 569.5,-249.5 293.5,-249.5" stroke="black"/>
<text font-family="Times,serif" font-size="14.00" text-anchor="middle" x="341.5" y="-268.8">flatten: Flatten</text>
<polyline fill="none" points="389.5,-249.5 389.5,-295.5 " stroke="black"/>
<text font-family="Times,serif" font-size="14.00" text-anchor="middle" x="417" y="-280.3">input:</text>
<polyline fill="none" points="389.5,-272.5 444.5,-272.5 " stroke="black"/>
<text font-family="Times,serif" font-size="14.00" text-anchor="middle" x="417" y="-257.3">output:</text>
<polyline fill="none" points="444.5,-249.5 444.5,-295.5 " stroke="black"/>
<text font-family="Times,serif" font-size="14.00" text-anchor="middle" x="507" y="-280.3">(None, 12, 12, 256)</text>
<polyline fill="none" points="444.5,-272.5 569.5,-272.5 " stroke="black"/>
<text font-family="Times,serif" font-size="14.00" text-anchor="middle" x="507" y="-257.3">(None, 36864)</text>
</g>
<!-- 140312320775336&#45;&gt;140312321312584 -->
<g class="edge" id="edge11"><title>140312320775336-&gt;140312321312584</title>
<path d="M431.5,-332.366C431.5,-324.152 431.5,-314.658 431.5,-305.725" fill="none" stroke="black"/>
<polygon fill="black" points="435,-305.607 431.5,-295.607 428,-305.607 435,-305.607" stroke="black"/>
</g>
<!-- 140312321702264 -->
<g class="node" id="node13"><title>140312321702264</title>
<polygon fill="none" points="305,-166.5 305,-212.5 558,-212.5 558,-166.5 305,-166.5" stroke="black"/>
<text font-family="Times,serif" font-size="14.00" text-anchor="middle" x="356" y="-185.8">dense_6: Dense</text>
<polyline fill="none" points="407,-166.5 407,-212.5 " stroke="black"/>
<text font-family="Times,serif" font-size="14.00" text-anchor="middle" x="434.5" y="-197.3">input:</text>
<polyline fill="none" points="407,-189.5 462,-189.5 " stroke="black"/>
<text font-family="Times,serif" font-size="14.00" text-anchor="middle" x="434.5" y="-174.3">output:</text>
<polyline fill="none" points="462,-166.5 462,-212.5 " stroke="black"/>
<text font-family="Times,serif" font-size="14.00" text-anchor="middle" x="510" y="-197.3">(None, 36864)</text>
<polyline fill="none" points="462,-189.5 558,-189.5 " stroke="black"/>
<text font-family="Times,serif" font-size="14.00" text-anchor="middle" x="510" y="-174.3">(None, 1024)</text>
</g>
<!-- 140312321312584&#45;&gt;140312321702264 -->
<g class="edge" id="edge12"><title>140312321312584-&gt;140312321702264</title>
<path d="M431.5,-249.366C431.5,-241.152 431.5,-231.658 431.5,-222.725" fill="none" stroke="black"/>
<polygon fill="black" points="435,-222.607 431.5,-212.607 428,-222.607 435,-222.607" stroke="black"/>
</g>
<!-- 140312318464912 -->
<g class="node" id="node14"><title>140312318464912</title>
<polygon fill="none" points="285.5,-83.5 285.5,-129.5 577.5,-129.5 577.5,-83.5 285.5,-83.5" stroke="black"/>
<text font-family="Times,serif" font-size="14.00" text-anchor="middle" x="359.5" y="-102.8">activation_7: Activation</text>
<polyline fill="none" points="433.5,-83.5 433.5,-129.5 " stroke="black"/>
<text font-family="Times,serif" font-size="14.00" text-anchor="middle" x="461" y="-114.3">input:</text>
<polyline fill="none" points="433.5,-106.5 488.5,-106.5 " stroke="black"/>
<text font-family="Times,serif" font-size="14.00" text-anchor="middle" x="461" y="-91.3">output:</text>
<polyline fill="none" points="488.5,-83.5 488.5,-129.5 " stroke="black"/>
<text font-family="Times,serif" font-size="14.00" text-anchor="middle" x="533" y="-114.3">(None, 1024)</text>
<polyline fill="none" points="488.5,-106.5 577.5,-106.5 " stroke="black"/>
<text font-family="Times,serif" font-size="14.00" text-anchor="middle" x="533" y="-91.3">(None, 1024)</text>
</g>
<!-- 140312321702264&#45;&gt;140312318464912 -->
<g class="edge" id="edge13"><title>140312321702264-&gt;140312318464912</title>
<path d="M431.5,-166.366C431.5,-158.152 431.5,-148.658 431.5,-139.725" fill="none" stroke="black"/>
<polygon fill="black" points="435,-139.607 431.5,-129.607 428,-139.607 435,-139.607" stroke="black"/>
</g>
<!-- 140312318465472 -->
<g class="node" id="node15"><title>140312318465472</title>
<polygon fill="none" points="308.5,-0.5 308.5,-46.5 554.5,-46.5 554.5,-0.5 308.5,-0.5" stroke="black"/>
<text font-family="Times,serif" font-size="14.00" text-anchor="middle" x="359.5" y="-19.8">dense_7: Dense</text>
<polyline fill="none" points="410.5,-0.5 410.5,-46.5 " stroke="black"/>
<text font-family="Times,serif" font-size="14.00" text-anchor="middle" x="438" y="-31.3">input:</text>
<polyline fill="none" points="410.5,-23.5 465.5,-23.5 " stroke="black"/>
<text font-family="Times,serif" font-size="14.00" text-anchor="middle" x="438" y="-8.3">output:</text>
<polyline fill="none" points="465.5,-0.5 465.5,-46.5 " stroke="black"/>
<text font-family="Times,serif" font-size="14.00" text-anchor="middle" x="510" y="-31.3">(None, 1024)</text>
<polyline fill="none" points="465.5,-23.5 554.5,-23.5 " stroke="black"/>
<text font-family="Times,serif" font-size="14.00" text-anchor="middle" x="510" y="-8.3">(None, 1)</text>
</g>
<!-- 140312318464912&#45;&gt;140312318465472 -->
<g class="edge" id="edge14"><title>140312318464912-&gt;140312318465472</title>
<path d="M431.5,-83.3664C431.5,-75.1516 431.5,-65.6579 431.5,-56.7252" fill="none" stroke="black"/>
<polygon fill="black" points="435,-56.6068 431.5,-46.6068 428,-56.6069 435,-56.6068" stroke="black"/>
</g>
</g>
</svg>