<svg height="626pt" viewBox="0.00 0.00 320.00 626.00" width="320pt" xmlns="http://www.w3.org/2000/svg" xmlns:xlink="http://www.w3.org/1999/xlink">
<g class="graph" id="graph0" transform="scale(1 1) rotate(0) translate(4 622)">
<title>G</title>
<polygon fill="white" points="-4,4 -4,-622 316,-622 316,4 -4,4" stroke="none"/>
<!-- 140039851837704 -->
<g class="node" id="node1"><title>140039851837704</title>
<polygon fill="none" points="42.5,-498.5 42.5,-544.5 269.5,-544.5 269.5,-498.5 42.5,-498.5" stroke="black"/>
<text font-family="Times,serif" font-size="14.00" text-anchor="middle" x="87" y="-517.8">dense: Dense</text>
<polyline fill="none" points="131.5,-498.5 131.5,-544.5 " stroke="black"/>
<text font-family="Times,serif" font-size="14.00" text-anchor="middle" x="159" y="-529.3">input:</text>
<polyline fill="none" points="131.5,-521.5 186.5,-521.5 " stroke="black"/>
<text font-family="Times,serif" font-size="14.00" text-anchor="middle" x="159" y="-506.3">output:</text>
<polyline fill="none" points="186.5,-498.5 186.5,-544.5 " stroke="black"/>
<text font-family="Times,serif" font-size="14.00" text-anchor="middle" x="228" y="-529.3">(None, 100)</text>
<polyline fill="none" points="186.5,-521.5 269.5,-521.5 " stroke="black"/>
<text font-family="Times,serif" font-size="14.00" text-anchor="middle" x="228" y="-506.3">(None, 256)</text>
</g>
<!-- 140039851838320 -->
<g class="node" id="node2"><title>140039851838320</title>
<polygon fill="none" points="9.5,-415.5 9.5,-461.5 302.5,-461.5 302.5,-415.5 9.5,-415.5" stroke="black"/>
<text font-family="Times,serif" font-size="14.00" text-anchor="middle" x="87" y="-434.8">leaky_re_lu: LeakyReLU</text>
<polyline fill="none" points="164.5,-415.5 164.5,-461.5 " stroke="black"/>
<text font-family="Times,serif" font-size="14.00" text-anchor="middle" x="192" y="-446.3">input:</text>
<polyline fill="none" points="164.5,-438.5 219.5,-438.5 " stroke="black"/>
<text font-family="Times,serif" font-size="14.00" text-anchor="middle" x="192" y="-423.3">output:</text>
<polyline fill="none" points="219.5,-415.5 219.5,-461.5 " stroke="black"/>
<text font-family="Times,serif" font-size="14.00" text-anchor="middle" x="261" y="-446.3">(None, 256)</text>
<polyline fill="none" points="219.5,-438.5 302.5,-438.5 " stroke="black"/>
<text font-family="Times,serif" font-size="14.00" text-anchor="middle" x="261" y="-423.3">(None, 256)</text>
</g>
<!-- 140039851837704&#45;&gt;140039851838320 -->
<g class="edge" id="edge2"><title>140039851837704-&gt;140039851838320</title>
<path d="M156,-498.366C156,-490.152 156,-480.658 156,-471.725" fill="none" stroke="black"/>
<polygon fill="black" points="159.5,-471.607 156,-461.607 152.5,-471.607 159.5,-471.607" stroke="black"/>
</g>
<!-- 140039851837984 -->
<g class="node" id="node3"><title>140039851837984</title>
<polygon fill="none" points="36,-332.5 36,-378.5 276,-378.5 276,-332.5 36,-332.5" stroke="black"/>
<text font-family="Times,serif" font-size="14.00" text-anchor="middle" x="87" y="-351.8">dense_1: Dense</text>
<polyline fill="none" points="138,-332.5 138,-378.5 " stroke="black"/>
<text font-family="Times,serif" font-size="14.00" text-anchor="middle" x="165.5" y="-363.3">input:</text>
<polyline fill="none" points="138,-355.5 193,-355.5 " stroke="black"/>
<text font-family="Times,serif" font-size="14.00" text-anchor="middle" x="165.5" y="-340.3">output:</text>
<polyline fill="none" points="193,-332.5 193,-378.5 " stroke="black"/>
<text font-family="Times,serif" font-size="14.00" text-anchor="middle" x="234.5" y="-363.3">(None, 256)</text>
<polyline fill="none" points="193,-355.5 276,-355.5 " stroke="black"/>
<text font-family="Times,serif" font-size="14.00" text-anchor="middle" x="234.5" y="-340.3">(None, 512)</text>
</g>
<!-- 140039851838320&#45;&gt;140039851837984 -->
<g class="edge" id="edge3"><title>140039851838320-&gt;140039851837984</title>
<path d="M156,-415.366C156,-407.152 156,-397.658 156,-388.725" fill="none" stroke="black"/>
<polygon fill="black" points="159.5,-388.607 156,-378.607 152.5,-388.607 159.5,-388.607" stroke="black"/>
</g>
<!-- 140039852032408 -->
<g class="node" id="node4"><title>140039852032408</title>
<polygon fill="none" points="3,-249.5 3,-295.5 309,-295.5 309,-249.5 3,-249.5" stroke="black"/>
<text font-family="Times,serif" font-size="14.00" text-anchor="middle" x="87" y="-268.8">leaky_re_lu_1: LeakyReLU</text>
<polyline fill="none" points="171,-249.5 171,-295.5 " stroke="black"/>
<text font-family="Times,serif" font-size="14.00" text-anchor="middle" x="198.5" y="-280.3">input:</text>
<polyline fill="none" points="171,-272.5 226,-272.5 " stroke="black"/>
<text font-family="Times,serif" font-size="14.00" text-anchor="middle" x="198.5" y="-257.3">output:</text>
<polyline fill="none" points="226,-249.5 226,-295.5 " stroke="black"/>
<text font-family="Times,serif" font-size="14.00" text-anchor="middle" x="267.5" y="-280.3">(None, 512)</text>
<polyline fill="none" points="226,-272.5 309,-272.5 " stroke="black"/>
<text font-family="Times,serif" font-size="14.00" text-anchor="middle" x="267.5" y="-257.3">(None, 512)</text>
</g>
<!-- 140039851837984&#45;&gt;140039852032408 -->
<g class="edge" id="edge4"><title>140039851837984-&gt;140039852032408</title>
<path d="M156,-332.366C156,-324.152 156,-314.658 156,-305.725" fill="none" stroke="black"/>
<polygon fill="black" points="159.5,-305.607 156,-295.607 152.5,-305.607 159.5,-305.607" stroke="black"/>
</g>
<!-- 140039852035208 -->
<g class="node" id="node5"><title>140039852035208</title>
<polygon fill="none" points="33,-166.5 33,-212.5 279,-212.5 279,-166.5 33,-166.5" stroke="black"/>
<text font-family="Times,serif" font-size="14.00" text-anchor="middle" x="84" y="-185.8">dense_2: Dense</text>
<polyline fill="none" points="135,-166.5 135,-212.5 " stroke="black"/>
<text font-family="Times,serif" font-size="14.00" text-anchor="middle" x="162.5" y="-197.3">input:</text>
<polyline fill="none" points="135,-189.5 190,-189.5 " stroke="black"/>
<text font-family="Times,serif" font-size="14.00" text-anchor="middle" x="162.5" y="-174.3">output:</text>
<polyline fill="none" points="190,-166.5 190,-212.5 " stroke="black"/>
<text font-family="Times,serif" font-size="14.00" text-anchor="middle" x="234.5" y="-197.3">(None, 512)</text>
<polyline fill="none" points="190,-189.5 279,-189.5 " stroke="black"/>
<text font-family="Times,serif" font-size="14.00" text-anchor="middle" x="234.5" y="-174.3">(None, 1024)</text>
</g>
<!-- 140039852032408&#45;&gt;140039852035208 -->
<g class="edge" id="edge5"><title>140039852032408-&gt;140039852035208</title>
<path d="M156,-249.366C156,-241.152 156,-231.658 156,-222.725" fill="none" stroke="black"/>
<polygon fill="black" points="159.5,-222.607 156,-212.607 152.5,-222.607 159.5,-222.607" stroke="black"/>
</g>
<!-- 140039836789280 -->
<g class="node" id="node6"><title>140039836789280</title>
<polygon fill="none" points="0,-83.5 0,-129.5 312,-129.5 312,-83.5 0,-83.5" stroke="black"/>
<text font-family="Times,serif" font-size="14.00" text-anchor="middle" x="84" y="-102.8">leaky_re_lu_2: LeakyReLU</text>
<polyline fill="none" points="168,-83.5 168,-129.5 " stroke="black"/>
<text font-family="Times,serif" font-size="14.00" text-anchor="middle" x="195.5" y="-114.3">input:</text>
<polyline fill="none" points="168,-106.5 223,-106.5 " stroke="black"/>
<text font-family="Times,serif" font-size="14.00" text-anchor="middle" x="195.5" y="-91.3">output:</text>
<polyline fill="none" points="223,-83.5 223,-129.5 " stroke="black"/>
<text font-family="Times,serif" font-size="14.00" text-anchor="middle" x="267.5" y="-114.3">(None, 1024)</text>
<polyline fill="none" points="223,-106.5 312,-106.5 " stroke="black"/>
<text font-family="Times,serif" font-size="14.00" text-anchor="middle" x="267.5" y="-91.3">(None, 1024)</text>
</g>
<!-- 140039852035208&#45;&gt;140039836789280 -->
<g class="edge" id="edge6"><title>140039852035208-&gt;140039836789280</title>
<path d="M156,-166.366C156,-158.152 156,-148.658 156,-139.725" fill="none" stroke="black"/>
<polygon fill="black" points="159.5,-139.607 156,-129.607 152.5,-139.607 159.5,-139.607" stroke="black"/>
</g>
<!-- 140039836786872 -->
<g class="node" id="node7"><title>140039836786872</title>
<polygon fill="none" points="33,-0.5 33,-46.5 279,-46.5 279,-0.5 33,-0.5" stroke="black"/>
<text font-family="Times,serif" font-size="14.00" text-anchor="middle" x="84" y="-19.8">dense_3: Dense</text>
<polyline fill="none" points="135,-0.5 135,-46.5 " stroke="black"/>
<text font-family="Times,serif" font-size="14.00" text-anchor="middle" x="162.5" y="-31.3">input:</text>
<polyline fill="none" points="135,-23.5 190,-23.5 " stroke="black"/>
<text font-family="Times,serif" font-size="14.00" text-anchor="middle" x="162.5" y="-8.3">output:</text>
<polyline fill="none" points="190,-0.5 190,-46.5 " stroke="black"/>
<text font-family="Times,serif" font-size="14.00" text-anchor="middle" x="234.5" y="-31.3">(None, 1024)</text>
<polyline fill="none" points="190,-23.5 279,-23.5 " stroke="black"/>
<text font-family="Times,serif" font-size="14.00" text-anchor="middle" x="234.5" y="-8.3">(None, 784)</text>
</g>
<!-- 140039836789280&#45;&gt;140039836786872 -->
<g class="edge" id="edge7"><title>140039836789280-&gt;140039836786872</title>
<path d="M156,-83.3664C156,-75.1516 156,-65.6579 156,-56.7252" fill="none" stroke="black"/>
<polygon fill="black" points="159.5,-56.6068 156,-46.6068 152.5,-56.6069 159.5,-56.6068" stroke="black"/>
</g>
<!-- 140039836789224 -->
<g class="node" id="node8"><title>140039836789224</title>
<polygon fill="none" points="97,-581.5 97,-617.5 215,-617.5 215,-581.5 97,-581.5" stroke="black"/>
<text font-family="Times,serif" font-size="14.00" text-anchor="middle" x="156" y="-595.8">140039836789224</text>
</g>
<!-- 140039836789224&#45;&gt;140039851837704 -->
<g class="edge" id="edge1"><title>140039836789224-&gt;140039851837704</title>
<path d="M156,-581.254C156,-573.363 156,-563.749 156,-554.602" fill="none" stroke="black"/>
<polygon fill="black" points="159.5,-554.591 156,-544.591 152.5,-554.591 159.5,-554.591" stroke="black"/>
</g>
</g>
</svg>