<svg height="792pt" viewBox="0.00 0.00 320.00 792.00" width="320pt" xmlns="http://www.w3.org/2000/svg" xmlns:xlink="http://www.w3.org/1999/xlink">
<g class="graph" id="graph0" transform="scale(1 1) rotate(0) translate(4 788)">
<title>G</title>
<polygon fill="white" points="-4,4 -4,-788 316,-788 316,4 -4,4" stroke="none"/>
<!-- 140039852301168 -->
<g class="node" id="node1"><title>140039852301168</title>
<polygon fill="none" points="33,-664.5 33,-710.5 279,-710.5 279,-664.5 33,-664.5" stroke="black"/>
<text font-family="Times,serif" font-size="14.00" text-anchor="middle" x="84" y="-683.8">dense_4: Dense</text>
<polyline fill="none" points="135,-664.5 135,-710.5 " stroke="black"/>
<text font-family="Times,serif" font-size="14.00" text-anchor="middle" x="162.5" y="-695.3">input:</text>
<polyline fill="none" points="135,-687.5 190,-687.5 " stroke="black"/>
<text font-family="Times,serif" font-size="14.00" text-anchor="middle" x="162.5" y="-672.3">output:</text>
<polyline fill="none" points="190,-664.5 190,-710.5 " stroke="black"/>
<text font-family="Times,serif" font-size="14.00" text-anchor="middle" x="234.5" y="-695.3">(None, 784)</text>
<polyline fill="none" points="190,-687.5 279,-687.5 " stroke="black"/>
<text font-family="Times,serif" font-size="14.00" text-anchor="middle" x="234.5" y="-672.3">(None, 1024)</text>
</g>
<!-- 140039835964416 -->
<g class="node" id="node2"><title>140039835964416</title>
<polygon fill="none" points="0,-581.5 0,-627.5 312,-627.5 312,-581.5 0,-581.5" stroke="black"/>
<text font-family="Times,serif" font-size="14.00" text-anchor="middle" x="84" y="-600.8">leaky_re_lu_3: LeakyReLU</text>
<polyline fill="none" points="168,-581.5 168,-627.5 " stroke="black"/>
<text font-family="Times,serif" font-size="14.00" text-anchor="middle" x="195.5" y="-612.3">input:</text>
<polyline fill="none" points="168,-604.5 223,-604.5 " stroke="black"/>
<text font-family="Times,serif" font-size="14.00" text-anchor="middle" x="195.5" y="-589.3">output:</text>
<polyline fill="none" points="223,-581.5 223,-627.5 " stroke="black"/>
<text font-family="Times,serif" font-size="14.00" text-anchor="middle" x="267.5" y="-612.3">(None, 1024)</text>
<polyline fill="none" points="223,-604.5 312,-604.5 " stroke="black"/>
<text font-family="Times,serif" font-size="14.00" text-anchor="middle" x="267.5" y="-589.3">(None, 1024)</text>
</g>
<!-- 140039852301168&#45;&gt;140039835964416 -->
<g class="edge" id="edge2"><title>140039852301168-&gt;140039835964416</title>
<path d="M156,-664.366C156,-656.152 156,-646.658 156,-637.725" fill="none" stroke="black"/>
<polygon fill="black" points="159.5,-637.607 156,-627.607 152.5,-637.607 159.5,-637.607" stroke="black"/>
</g>
<!-- 140039835966712 -->
<g class="node" id="node3"><title>140039835966712</title>
<polygon fill="none" points="28.5,-498.5 28.5,-544.5 283.5,-544.5 283.5,-498.5 28.5,-498.5" stroke="black"/>
<text font-family="Times,serif" font-size="14.00" text-anchor="middle" x="84" y="-517.8">dropout: Dropout</text>
<polyline fill="none" points="139.5,-498.5 139.5,-544.5 " stroke="black"/>
<text font-family="Times,serif" font-size="14.00" text-anchor="middle" x="167" y="-529.3">input:</text>
<polyline fill="none" points="139.5,-521.5 194.5,-521.5 " stroke="black"/>
<text font-family="Times,serif" font-size="14.00" text-anchor="middle" x="167" y="-506.3">output:</text>
<polyline fill="none" points="194.5,-498.5 194.5,-544.5 " stroke="black"/>
<text font-family="Times,serif" font-size="14.00" text-anchor="middle" x="239" y="-529.3">(None, 1024)</text>
<polyline fill="none" points="194.5,-521.5 283.5,-521.5 " stroke="black"/>
<text font-family="Times,serif" font-size="14.00" text-anchor="middle" x="239" y="-506.3">(None, 1024)</text>
</g>
<!-- 140039835964416&#45;&gt;140039835966712 -->
<g class="edge" id="edge3"><title>140039835964416-&gt;140039835966712</title>
<path d="M156,-581.366C156,-573.152 156,-563.658 156,-554.725" fill="none" stroke="black"/>
<polygon fill="black" points="159.5,-554.607 156,-544.607 152.5,-554.607 159.5,-554.607" stroke="black"/>
</g>
<!-- 140039835965704 -->
<g class="node" id="node4"><title>140039835965704</title>
<polygon fill="none" points="33,-415.5 33,-461.5 279,-461.5 279,-415.5 33,-415.5" stroke="black"/>
<text font-family="Times,serif" font-size="14.00" text-anchor="middle" x="84" y="-434.8">dense_5: Dense</text>
<polyline fill="none" points="135,-415.5 135,-461.5 " stroke="black"/>
<text font-family="Times,serif" font-size="14.00" text-anchor="middle" x="162.5" y="-446.3">input:</text>
<polyline fill="none" points="135,-438.5 190,-438.5 " stroke="black"/>
<text font-family="Times,serif" font-size="14.00" text-anchor="middle" x="162.5" y="-423.3">output:</text>
<polyline fill="none" points="190,-415.5 190,-461.5 " stroke="black"/>
<text font-family="Times,serif" font-size="14.00" text-anchor="middle" x="234.5" y="-446.3">(None, 1024)</text>
<polyline fill="none" points="190,-438.5 279,-438.5 " stroke="black"/>
<text font-family="Times,serif" font-size="14.00" text-anchor="middle" x="234.5" y="-423.3">(None, 512)</text>
</g>
<!-- 140039835966712&#45;&gt;140039835965704 -->
<g class="edge" id="edge4"><title>140039835966712-&gt;140039835965704</title>
<path d="M156,-498.366C156,-490.152 156,-480.658 156,-471.725" fill="none" stroke="black"/>
<polygon fill="black" points="159.5,-471.607 156,-461.607 152.5,-471.607 159.5,-471.607" stroke="black"/>
</g>
<!-- 140039834315240 -->
<g class="node" id="node5"><title>140039834315240</title>
<polygon fill="none" points="3,-332.5 3,-378.5 309,-378.5 309,-332.5 3,-332.5" stroke="black"/>
<text font-family="Times,serif" font-size="14.00" text-anchor="middle" x="87" y="-351.8">leaky_re_lu_4: LeakyReLU</text>
<polyline fill="none" points="171,-332.5 171,-378.5 " stroke="black"/>
<text font-family="Times,serif" font-size="14.00" text-anchor="middle" x="198.5" y="-363.3">input:</text>
<polyline fill="none" points="171,-355.5 226,-355.5 " stroke="black"/>
<text font-family="Times,serif" font-size="14.00" text-anchor="middle" x="198.5" y="-340.3">output:</text>
<polyline fill="none" points="226,-332.5 226,-378.5 " stroke="black"/>
<text font-family="Times,serif" font-size="14.00" text-anchor="middle" x="267.5" y="-363.3">(None, 512)</text>
<polyline fill="none" points="226,-355.5 309,-355.5 " stroke="black"/>
<text font-family="Times,serif" font-size="14.00" text-anchor="middle" x="267.5" y="-340.3">(None, 512)</text>
</g>
<!-- 140039835965704&#45;&gt;140039834315240 -->
<g class="edge" id="edge5"><title>140039835965704-&gt;140039834315240</title>
<path d="M156,-415.366C156,-407.152 156,-397.658 156,-388.725" fill="none" stroke="black"/>
<polygon fill="black" points="159.5,-388.607 156,-378.607 152.5,-388.607 159.5,-388.607" stroke="black"/>
</g>
<!-- 140039834315296 -->
<g class="node" id="node6"><title>140039834315296</title>
<polygon fill="none" points="24.5,-249.5 24.5,-295.5 287.5,-295.5 287.5,-249.5 24.5,-249.5" stroke="black"/>
<text font-family="Times,serif" font-size="14.00" text-anchor="middle" x="87" y="-268.8">dropout_1: Dropout</text>
<polyline fill="none" points="149.5,-249.5 149.5,-295.5 " stroke="black"/>
<text font-family="Times,serif" font-size="14.00" text-anchor="middle" x="177" y="-280.3">input:</text>
<polyline fill="none" points="149.5,-272.5 204.5,-272.5 " stroke="black"/>
<text font-family="Times,serif" font-size="14.00" text-anchor="middle" x="177" y="-257.3">output:</text>
<polyline fill="none" points="204.5,-249.5 204.5,-295.5 " stroke="black"/>
<text font-family="Times,serif" font-size="14.00" text-anchor="middle" x="246" y="-280.3">(None, 512)</text>
<polyline fill="none" points="204.5,-272.5 287.5,-272.5 " stroke="black"/>
<text font-family="Times,serif" font-size="14.00" text-anchor="middle" x="246" y="-257.3">(None, 512)</text>
</g>
<!-- 140039834315240&#45;&gt;140039834315296 -->
<g class="edge" id="edge6"><title>140039834315240-&gt;140039834315296</title>
<path d="M156,-332.366C156,-324.152 156,-314.658 156,-305.725" fill="none" stroke="black"/>
<polygon fill="black" points="159.5,-305.607 156,-295.607 152.5,-305.607 159.5,-305.607" stroke="black"/>
</g>
<!-- 140039834315408 -->
<g class="node" id="node7"><title>140039834315408</title>
<polygon fill="none" points="36,-166.5 36,-212.5 276,-212.5 276,-166.5 36,-166.5" stroke="black"/>
<text font-family="Times,serif" font-size="14.00" text-anchor="middle" x="87" y="-185.8">dense_6: Dense</text>
<polyline fill="none" points="138,-166.5 138,-212.5 " stroke="black"/>
<text font-family="Times,serif" font-size="14.00" text-anchor="middle" x="165.5" y="-197.3">input:</text>
<polyline fill="none" points="138,-189.5 193,-189.5 " stroke="black"/>
<text font-family="Times,serif" font-size="14.00" text-anchor="middle" x="165.5" y="-174.3">output:</text>
<polyline fill="none" points="193,-166.5 193,-212.5 " stroke="black"/>
<text font-family="Times,serif" font-size="14.00" text-anchor="middle" x="234.5" y="-197.3">(None, 512)</text>
<polyline fill="none" points="193,-189.5 276,-189.5 " stroke="black"/>
<text font-family="Times,serif" font-size="14.00" text-anchor="middle" x="234.5" y="-174.3">(None, 256)</text>
</g>
<!-- 140039834315296&#45;&gt;140039834315408 -->
<g class="edge" id="edge7"><title>140039834315296-&gt;140039834315408</title>
<path d="M156,-249.366C156,-241.152 156,-231.658 156,-222.725" fill="none" stroke="black"/>
<polygon fill="black" points="159.5,-222.607 156,-212.607 152.5,-222.607 159.5,-222.607" stroke="black"/>
</g>
<!-- 140039834315800 -->
<g class="node" id="node8"><title>140039834315800</title>
<polygon fill="none" points="3,-83.5 3,-129.5 309,-129.5 309,-83.5 3,-83.5" stroke="black"/>
<text font-family="Times,serif" font-size="14.00" text-anchor="middle" x="87" y="-102.8">leaky_re_lu_5: LeakyReLU</text>
<polyline fill="none" points="171,-83.5 171,-129.5 " stroke="black"/>
<text font-family="Times,serif" font-size="14.00" text-anchor="middle" x="198.5" y="-114.3">input:</text>
<polyline fill="none" points="171,-106.5 226,-106.5 " stroke="black"/>
<text font-family="Times,serif" font-size="14.00" text-anchor="middle" x="198.5" y="-91.3">output:</text>
<polyline fill="none" points="226,-83.5 226,-129.5 " stroke="black"/>
<text font-family="Times,serif" font-size="14.00" text-anchor="middle" x="267.5" y="-114.3">(None, 256)</text>
<polyline fill="none" points="226,-106.5 309,-106.5 " stroke="black"/>
<text font-family="Times,serif" font-size="14.00" text-anchor="middle" x="267.5" y="-91.3">(None, 256)</text>
</g>
<!-- 140039834315408&#45;&gt;140039834315800 -->
<g class="edge" id="edge8"><title>140039834315408-&gt;140039834315800</title>
<path d="M156,-166.366C156,-158.152 156,-148.658 156,-139.725" fill="none" stroke="black"/>
<polygon fill="black" points="159.5,-139.607 156,-129.607 152.5,-139.607 159.5,-139.607" stroke="black"/>
</g>
<!-- 140039834315688 -->
<g class="node" id="node9"><title>140039834315688</title>
<polygon fill="none" points="36,-0.5 36,-46.5 276,-46.5 276,-0.5 36,-0.5" stroke="black"/>
<text font-family="Times,serif" font-size="14.00" text-anchor="middle" x="87" y="-19.8">dense_7: Dense</text>
<polyline fill="none" points="138,-0.5 138,-46.5 " stroke="black"/>
<text font-family="Times,serif" font-size="14.00" text-anchor="middle" x="165.5" y="-31.3">input:</text>
<polyline fill="none" points="138,-23.5 193,-23.5 " stroke="black"/>
<text font-family="Times,serif" font-size="14.00" text-anchor="middle" x="165.5" y="-8.3">output:</text>
<polyline fill="none" points="193,-0.5 193,-46.5 " stroke="black"/>
<text font-family="Times,serif" font-size="14.00" text-anchor="middle" x="234.5" y="-31.3">(None, 256)</text>
<polyline fill="none" points="193,-23.5 276,-23.5 " stroke="black"/>
<text font-family="Times,serif" font-size="14.00" text-anchor="middle" x="234.5" y="-8.3">(None, 1)</text>
</g>
<!-- 140039834315800&#45;&gt;140039834315688 -->
<g class="edge" id="edge9"><title>140039834315800-&gt;140039834315688</title>
<path d="M156,-83.3664C156,-75.1516 156,-65.6579 156,-56.7252" fill="none" stroke="black"/>
<polygon fill="black" points="159.5,-56.6068 156,-46.6068 152.5,-56.6069 159.5,-56.6068" stroke="black"/>
</g>
<!-- 140039834316528 -->
<g class="node" id="node10"><title>140039834316528</title>
<polygon fill="none" points="97,-747.5 97,-783.5 215,-783.5 215,-747.5 97,-747.5" stroke="black"/>
<text font-family="Times,serif" font-size="14.00" text-anchor="middle" x="156" y="-761.8">140039834316528</text>
</g>
<!-- 140039834316528&#45;&gt;140039852301168 -->
<g class="edge" id="edge1"><title>140039834316528-&gt;140039852301168</title>
<path d="M156,-747.254C156,-739.363 156,-729.749 156,-720.602" fill="none" stroke="black"/>
<polygon fill="black" points="159.5,-720.591 156,-710.591 152.5,-720.591 159.5,-720.591" stroke="black"/>
</g>
</g>
</svg>