<svg height="1051pt" viewBox="0.00 0.00 893.50 1051.00" width="894pt" xmlns="http://www.w3.org/2000/svg" xmlns:xlink="http://www.w3.org/1999/xlink">
<g class="graph" id="graph0" transform="scale(1 1) rotate(0) translate(4 1047)">
<title>G</title>
<polygon fill="white" points="-4,4 -4,-1047 889.5,-1047 889.5,4 -4,4" stroke="none"/>
<!-- 140312362508416 -->
<g class="node" id="node1"><title>140312362508416</title>
<polygon fill="none" points="82,-996.5 82,-1042.5 345,-1042.5 345,-996.5 82,-996.5" stroke="black"/>
<text font-family="Times,serif" font-size="14.00" text-anchor="middle" x="144.5" y="-1015.8">input_1: InputLayer</text>
<polyline fill="none" points="207,-996.5 207,-1042.5 " stroke="black"/>
<text font-family="Times,serif" font-size="14.00" text-anchor="middle" x="234.5" y="-1027.3">input:</text>
<polyline fill="none" points="207,-1019.5 262,-1019.5 " stroke="black"/>
<text font-family="Times,serif" font-size="14.00" text-anchor="middle" x="234.5" y="-1004.3">output:</text>
<polyline fill="none" points="262,-996.5 262,-1042.5 " stroke="black"/>
<text font-family="Times,serif" font-size="14.00" text-anchor="middle" x="303.5" y="-1027.3">(None, 100)</text>
<polyline fill="none" points="262,-1019.5 345,-1019.5 " stroke="black"/>
<text font-family="Times,serif" font-size="14.00" text-anchor="middle" x="303.5" y="-1004.3">(None, 100)</text>
</g>
<!-- 140312362509368 -->
<g class="node" id="node3"><title>140312362509368</title>
<polygon fill="none" points="97,-913.5 97,-959.5 330,-959.5 330,-913.5 97,-913.5" stroke="black"/>
<text font-family="Times,serif" font-size="14.00" text-anchor="middle" x="141.5" y="-932.8">dense: Dense</text>
<polyline fill="none" points="186,-913.5 186,-959.5 " stroke="black"/>
<text font-family="Times,serif" font-size="14.00" text-anchor="middle" x="213.5" y="-944.3">input:</text>
<polyline fill="none" points="186,-936.5 241,-936.5 " stroke="black"/>
<text font-family="Times,serif" font-size="14.00" text-anchor="middle" x="213.5" y="-921.3">output:</text>
<polyline fill="none" points="241,-913.5 241,-959.5 " stroke="black"/>
<text font-family="Times,serif" font-size="14.00" text-anchor="middle" x="285.5" y="-944.3">(None, 100)</text>
<polyline fill="none" points="241,-936.5 330,-936.5 " stroke="black"/>
<text font-family="Times,serif" font-size="14.00" text-anchor="middle" x="285.5" y="-921.3">(None, 1024)</text>
</g>
<!-- 140312362508416&#45;&gt;140312362509368 -->
<g class="edge" id="edge1"><title>140312362508416-&gt;140312362509368</title>
<path d="M213.5,-996.366C213.5,-988.152 213.5,-978.658 213.5,-969.725" fill="none" stroke="black"/>
<polygon fill="black" points="217,-969.607 213.5,-959.607 210,-969.607 217,-969.607" stroke="black"/>
</g>
<!-- 140312325040840 -->
<g class="node" id="node2"><title>140312325040840</title>
<polygon fill="none" points="534,-996.5 534,-1042.5 797,-1042.5 797,-996.5 534,-996.5" stroke="black"/>
<text font-family="Times,serif" font-size="14.00" text-anchor="middle" x="596.5" y="-1015.8">input_2: InputLayer</text>
<polyline fill="none" points="659,-996.5 659,-1042.5 " stroke="black"/>
<text font-family="Times,serif" font-size="14.00" text-anchor="middle" x="686.5" y="-1027.3">input:</text>
<polyline fill="none" points="659,-1019.5 714,-1019.5 " stroke="black"/>
<text font-family="Times,serif" font-size="14.00" text-anchor="middle" x="686.5" y="-1004.3">output:</text>
<polyline fill="none" points="714,-996.5 714,-1042.5 " stroke="black"/>
<text font-family="Times,serif" font-size="14.00" text-anchor="middle" x="755.5" y="-1027.3">(None, 100)</text>
<polyline fill="none" points="714,-1019.5 797,-1019.5 " stroke="black"/>
<text font-family="Times,serif" font-size="14.00" text-anchor="middle" x="755.5" y="-1004.3">(None, 100)</text>
</g>
<!-- 140312325041064 -->
<g class="node" id="node4"><title>140312325041064</title>
<polygon fill="none" points="542.5,-913.5 542.5,-959.5 788.5,-959.5 788.5,-913.5 542.5,-913.5" stroke="black"/>
<text font-family="Times,serif" font-size="14.00" text-anchor="middle" x="593.5" y="-932.8">dense_2: Dense</text>
<polyline fill="none" points="644.5,-913.5 644.5,-959.5 " stroke="black"/>
<text font-family="Times,serif" font-size="14.00" text-anchor="middle" x="672" y="-944.3">input:</text>
<polyline fill="none" points="644.5,-936.5 699.5,-936.5 " stroke="black"/>
<text font-family="Times,serif" font-size="14.00" text-anchor="middle" x="672" y="-921.3">output:</text>
<polyline fill="none" points="699.5,-913.5 699.5,-959.5 " stroke="black"/>
<text font-family="Times,serif" font-size="14.00" text-anchor="middle" x="744" y="-944.3">(None, 100)</text>
<polyline fill="none" points="699.5,-936.5 788.5,-936.5 " stroke="black"/>
<text font-family="Times,serif" font-size="14.00" text-anchor="middle" x="744" y="-921.3">(None, 1024)</text>
</g>
<!-- 140312325040840&#45;&gt;140312325041064 -->
<g class="edge" id="edge2"><title>140312325040840-&gt;140312325041064</title>
<path d="M665.5,-996.366C665.5,-988.152 665.5,-978.658 665.5,-969.725" fill="none" stroke="black"/>
<polygon fill="black" points="669,-969.607 665.5,-959.607 662,-969.607 669,-969.607" stroke="black"/>
</g>
<!-- 140314454421456 -->
<g class="node" id="node5"><title>140314454421456</title>
<polygon fill="none" points="74.5,-830.5 74.5,-876.5 352.5,-876.5 352.5,-830.5 74.5,-830.5" stroke="black"/>
<text font-family="Times,serif" font-size="14.00" text-anchor="middle" x="141.5" y="-849.8">activation: Activation</text>
<polyline fill="none" points="208.5,-830.5 208.5,-876.5 " stroke="black"/>
<text font-family="Times,serif" font-size="14.00" text-anchor="middle" x="236" y="-861.3">input:</text>
<polyline fill="none" points="208.5,-853.5 263.5,-853.5 " stroke="black"/>
<text font-family="Times,serif" font-size="14.00" text-anchor="middle" x="236" y="-838.3">output:</text>
<polyline fill="none" points="263.5,-830.5 263.5,-876.5 " stroke="black"/>
<text font-family="Times,serif" font-size="14.00" text-anchor="middle" x="308" y="-861.3">(None, 1024)</text>
<polyline fill="none" points="263.5,-853.5 352.5,-853.5 " stroke="black"/>
<text font-family="Times,serif" font-size="14.00" text-anchor="middle" x="308" y="-838.3">(None, 1024)</text>
</g>
<!-- 140312362509368&#45;&gt;140314454421456 -->
<g class="edge" id="edge3"><title>140312362509368-&gt;140314454421456</title>
<path d="M213.5,-913.366C213.5,-905.152 213.5,-895.658 213.5,-886.725" fill="none" stroke="black"/>
<polygon fill="black" points="217,-886.607 213.5,-876.607 210,-886.607 217,-886.607" stroke="black"/>
</g>
<!-- 140312324491864 -->
<g class="node" id="node6"><title>140312324491864</title>
<polygon fill="none" points="519.5,-830.5 519.5,-876.5 811.5,-876.5 811.5,-830.5 519.5,-830.5" stroke="black"/>
<text font-family="Times,serif" font-size="14.00" text-anchor="middle" x="593.5" y="-849.8">activation_1: Activation</text>
<polyline fill="none" points="667.5,-830.5 667.5,-876.5 " stroke="black"/>
<text font-family="Times,serif" font-size="14.00" text-anchor="middle" x="695" y="-861.3">input:</text>
<polyline fill="none" points="667.5,-853.5 722.5,-853.5 " stroke="black"/>
<text font-family="Times,serif" font-size="14.00" text-anchor="middle" x="695" y="-838.3">output:</text>
<polyline fill="none" points="722.5,-830.5 722.5,-876.5 " stroke="black"/>
<text font-family="Times,serif" font-size="14.00" text-anchor="middle" x="767" y="-861.3">(None, 1024)</text>
<polyline fill="none" points="722.5,-853.5 811.5,-853.5 " stroke="black"/>
<text font-family="Times,serif" font-size="14.00" text-anchor="middle" x="767" y="-838.3">(None, 1024)</text>
</g>
<!-- 140312325041064&#45;&gt;140312324491864 -->
<g class="edge" id="edge4"><title>140312325041064-&gt;140312324491864</title>
<path d="M665.5,-913.366C665.5,-905.152 665.5,-895.658 665.5,-886.725" fill="none" stroke="black"/>
<polygon fill="black" points="669,-886.607 665.5,-876.607 662,-886.607 669,-886.607" stroke="black"/>
</g>
<!-- 140314725539288 -->
<g class="node" id="node7"><title>140314725539288</title>
<polygon fill="none" points="90.5,-747.5 90.5,-793.5 336.5,-793.5 336.5,-747.5 90.5,-747.5" stroke="black"/>
<text font-family="Times,serif" font-size="14.00" text-anchor="middle" x="141.5" y="-766.8">dense_1: Dense</text>
<polyline fill="none" points="192.5,-747.5 192.5,-793.5 " stroke="black"/>
<text font-family="Times,serif" font-size="14.00" text-anchor="middle" x="220" y="-778.3">input:</text>
<polyline fill="none" points="192.5,-770.5 247.5,-770.5 " stroke="black"/>
<text font-family="Times,serif" font-size="14.00" text-anchor="middle" x="220" y="-755.3">output:</text>
<polyline fill="none" points="247.5,-747.5 247.5,-793.5 " stroke="black"/>
<text font-family="Times,serif" font-size="14.00" text-anchor="middle" x="292" y="-778.3">(None, 1024)</text>
<polyline fill="none" points="247.5,-770.5 336.5,-770.5 " stroke="black"/>
<text font-family="Times,serif" font-size="14.00" text-anchor="middle" x="292" y="-755.3">(None, 6272)</text>
</g>
<!-- 140314454421456&#45;&gt;140314725539288 -->
<g class="edge" id="edge5"><title>140314454421456-&gt;140314725539288</title>
<path d="M213.5,-830.366C213.5,-822.152 213.5,-812.658 213.5,-803.725" fill="none" stroke="black"/>
<polygon fill="black" points="217,-803.607 213.5,-793.607 210,-803.607 217,-803.607" stroke="black"/>
</g>
<!-- 140312323695784 -->
<g class="node" id="node8"><title>140312323695784</title>
<polygon fill="none" points="542.5,-747.5 542.5,-793.5 788.5,-793.5 788.5,-747.5 542.5,-747.5" stroke="black"/>
<text font-family="Times,serif" font-size="14.00" text-anchor="middle" x="593.5" y="-766.8">dense_3: Dense</text>
<polyline fill="none" points="644.5,-747.5 644.5,-793.5 " stroke="black"/>
<text font-family="Times,serif" font-size="14.00" text-anchor="middle" x="672" y="-778.3">input:</text>
<polyline fill="none" points="644.5,-770.5 699.5,-770.5 " stroke="black"/>
<text font-family="Times,serif" font-size="14.00" text-anchor="middle" x="672" y="-755.3">output:</text>
<polyline fill="none" points="699.5,-747.5 699.5,-793.5 " stroke="black"/>
<text font-family="Times,serif" font-size="14.00" text-anchor="middle" x="744" y="-778.3">(None, 1024)</text>
<polyline fill="none" points="699.5,-770.5 788.5,-770.5 " stroke="black"/>
<text font-family="Times,serif" font-size="14.00" text-anchor="middle" x="744" y="-755.3">(None, 6272)</text>
</g>
<!-- 140312324491864&#45;&gt;140312323695784 -->
<g class="edge" id="edge6"><title>140312324491864-&gt;140312323695784</title>
<path d="M665.5,-830.366C665.5,-822.152 665.5,-812.658 665.5,-803.725" fill="none" stroke="black"/>
<polygon fill="black" points="669,-803.607 665.5,-793.607 662,-803.607 669,-803.607" stroke="black"/>
</g>
<!-- 140312333816888 -->
<g class="node" id="node9"><title>140312333816888</title>
<polygon fill="none" points="0,-664.5 0,-710.5 427,-710.5 427,-664.5 0,-664.5" stroke="black"/>
<text font-family="Times,serif" font-size="14.00" text-anchor="middle" x="141.5" y="-683.8">batch_normalization_v1: BatchNormalizationV1</text>
<polyline fill="none" points="283,-664.5 283,-710.5 " stroke="black"/>
<text font-family="Times,serif" font-size="14.00" text-anchor="middle" x="310.5" y="-695.3">input:</text>
<polyline fill="none" points="283,-687.5 338,-687.5 " stroke="black"/>
<text font-family="Times,serif" font-size="14.00" text-anchor="middle" x="310.5" y="-672.3">output:</text>
<polyline fill="none" points="338,-664.5 338,-710.5 " stroke="black"/>
<text font-family="Times,serif" font-size="14.00" text-anchor="middle" x="382.5" y="-695.3">(None, 6272)</text>
<polyline fill="none" points="338,-687.5 427,-687.5 " stroke="black"/>
<text font-family="Times,serif" font-size="14.00" text-anchor="middle" x="382.5" y="-672.3">(None, 6272)</text>
</g>
<!-- 140314725539288&#45;&gt;140312333816888 -->
<g class="edge" id="edge7"><title>140314725539288-&gt;140312333816888</title>
<path d="M213.5,-747.366C213.5,-739.152 213.5,-729.658 213.5,-720.725" fill="none" stroke="black"/>
<polygon fill="black" points="217,-720.607 213.5,-710.607 210,-720.607 217,-720.607" stroke="black"/>
</g>
<!-- 140312323821696 -->
<g class="node" id="node10"><title>140312323821696</title>
<polygon fill="none" points="445.5,-664.5 445.5,-710.5 885.5,-710.5 885.5,-664.5 445.5,-664.5" stroke="black"/>
<text font-family="Times,serif" font-size="14.00" text-anchor="middle" x="593.5" y="-683.8">batch_normalization_v1_1: BatchNormalizationV1</text>
<polyline fill="none" points="741.5,-664.5 741.5,-710.5 " stroke="black"/>
<text font-family="Times,serif" font-size="14.00" text-anchor="middle" x="769" y="-695.3">input:</text>
<polyline fill="none" points="741.5,-687.5 796.5,-687.5 " stroke="black"/>
<text font-family="Times,serif" font-size="14.00" text-anchor="middle" x="769" y="-672.3">output:</text>
<polyline fill="none" points="796.5,-664.5 796.5,-710.5 " stroke="black"/>
<text font-family="Times,serif" font-size="14.00" text-anchor="middle" x="841" y="-695.3">(None, 6272)</text>
<polyline fill="none" points="796.5,-687.5 885.5,-687.5 " stroke="black"/>
<text font-family="Times,serif" font-size="14.00" text-anchor="middle" x="841" y="-672.3">(None, 6272)</text>
</g>
<!-- 140312323695784&#45;&gt;140312323821696 -->
<g class="edge" id="edge8"><title>140312323695784-&gt;140312323821696</title>
<path d="M665.5,-747.366C665.5,-739.152 665.5,-729.658 665.5,-720.725" fill="none" stroke="black"/>
<polygon fill="black" points="669,-720.607 665.5,-710.607 662,-720.607 669,-720.607" stroke="black"/>
</g>
<!-- 140312362510880 -->
<g class="node" id="node11"><title>140312362510880</title>
<polygon fill="none" points="150,-581.5 150,-627.5 427,-627.5 427,-581.5 150,-581.5" stroke="black"/>
<text font-family="Times,serif" font-size="14.00" text-anchor="middle" x="205.5" y="-600.8">reshape: Reshape</text>
<polyline fill="none" points="261,-581.5 261,-627.5 " stroke="black"/>
<text font-family="Times,serif" font-size="14.00" text-anchor="middle" x="288.5" y="-612.3">input:</text>
<polyline fill="none" points="261,-604.5 316,-604.5 " stroke="black"/>
<text font-family="Times,serif" font-size="14.00" text-anchor="middle" x="288.5" y="-589.3">output:</text>
<polyline fill="none" points="316,-581.5 316,-627.5 " stroke="black"/>
<text font-family="Times,serif" font-size="14.00" text-anchor="middle" x="371.5" y="-612.3">(None, 6272)</text>
<polyline fill="none" points="316,-604.5 427,-604.5 " stroke="black"/>
<text font-family="Times,serif" font-size="14.00" text-anchor="middle" x="371.5" y="-589.3">(None, 7, 7, 128)</text>
</g>
<!-- 140312333816888&#45;&gt;140312362510880 -->
<g class="edge" id="edge9"><title>140312333816888-&gt;140312362510880</title>
<path d="M233.994,-664.366C242.344,-655.348 252.122,-644.788 261.073,-635.121" fill="none" stroke="black"/>
<polygon fill="black" points="263.805,-637.322 268.031,-627.607 258.668,-632.567 263.805,-637.322" stroke="black"/>
</g>
<!-- 140312323823096 -->
<g class="node" id="node12"><title>140312323823096</title>
<polygon fill="none" points="482,-581.5 482,-627.5 773,-627.5 773,-581.5 482,-581.5" stroke="black"/>
<text font-family="Times,serif" font-size="14.00" text-anchor="middle" x="544.5" y="-600.8">reshape_1: Reshape</text>
<polyline fill="none" points="607,-581.5 607,-627.5 " stroke="black"/>
<text font-family="Times,serif" font-size="14.00" text-anchor="middle" x="634.5" y="-612.3">input:</text>
<polyline fill="none" points="607,-604.5 662,-604.5 " stroke="black"/>
<text font-family="Times,serif" font-size="14.00" text-anchor="middle" x="634.5" y="-589.3">output:</text>
<polyline fill="none" points="662,-581.5 662,-627.5 " stroke="black"/>
<text font-family="Times,serif" font-size="14.00" text-anchor="middle" x="717.5" y="-612.3">(None, 6272)</text>
<polyline fill="none" points="662,-604.5 773,-604.5 " stroke="black"/>
<text font-family="Times,serif" font-size="14.00" text-anchor="middle" x="717.5" y="-589.3">(None, 7, 7, 128)</text>
</g>
<!-- 140312323821696&#45;&gt;140312323823096 -->
<g class="edge" id="edge10"><title>140312323821696-&gt;140312323823096</title>
<path d="M655.116,-664.366C651.137,-655.884 646.518,-646.037 642.209,-636.853" fill="none" stroke="black"/>
<polygon fill="black" points="645.287,-635.174 637.871,-627.607 638.95,-638.147 645.287,-635.174" stroke="black"/>
</g>
<!-- 140312323696232 -->
<g class="node" id="node13"><title>140312323696232</title>
<polygon fill="none" points="241.5,-498.5 241.5,-544.5 673.5,-544.5 673.5,-498.5 241.5,-498.5" stroke="black"/>
<text font-family="Times,serif" font-size="14.00" text-anchor="middle" x="319" y="-517.8">concatenate: Concatenate</text>
<polyline fill="none" points="396.5,-498.5 396.5,-544.5 " stroke="black"/>
<text font-family="Times,serif" font-size="14.00" text-anchor="middle" x="424" y="-529.3">input:</text>
<polyline fill="none" points="396.5,-521.5 451.5,-521.5 " stroke="black"/>
<text font-family="Times,serif" font-size="14.00" text-anchor="middle" x="424" y="-506.3">output:</text>
<polyline fill="none" points="451.5,-498.5 451.5,-544.5 " stroke="black"/>
<text font-family="Times,serif" font-size="14.00" text-anchor="middle" x="562.5" y="-529.3">[(None, 7, 7, 128), (None, 7, 7, 128)]</text>
<polyline fill="none" points="451.5,-521.5 673.5,-521.5 " stroke="black"/>
<text font-family="Times,serif" font-size="14.00" text-anchor="middle" x="562.5" y="-506.3">(None, 7, 7, 256)</text>
</g>
<!-- 140312362510880&#45;&gt;140312323696232 -->
<g class="edge" id="edge11"><title>140312362510880-&gt;140312323696232</title>
<path d="M334.68,-581.366C355.545,-571.366 380.366,-559.47 402.214,-548.998" fill="none" stroke="black"/>
<polygon fill="black" points="403.871,-552.085 411.376,-544.607 400.845,-545.773 403.871,-552.085" stroke="black"/>
</g>
<!-- 140312323823096&#45;&gt;140312323696232 -->
<g class="edge" id="edge12"><title>140312323823096-&gt;140312323696232</title>
<path d="M581.047,-581.366C560.058,-571.366 535.091,-559.47 513.113,-548.998" fill="none" stroke="black"/>
<polygon fill="black" points="514.43,-545.749 503.897,-544.607 511.419,-552.068 514.43,-545.749" stroke="black"/>
</g>
<!-- 140312323402888 -->
<g class="node" id="node14"><title>140312323402888</title>
<polygon fill="none" points="270.5,-415.5 270.5,-461.5 644.5,-461.5 644.5,-415.5 270.5,-415.5" stroke="black"/>
<text font-family="Times,serif" font-size="14.00" text-anchor="middle" x="367.5" y="-434.8">up_sampling2d: UpSampling2D</text>
<polyline fill="none" points="464.5,-415.5 464.5,-461.5 " stroke="black"/>
<text font-family="Times,serif" font-size="14.00" text-anchor="middle" x="492" y="-446.3">input:</text>
<polyline fill="none" points="464.5,-438.5 519.5,-438.5 " stroke="black"/>
<text font-family="Times,serif" font-size="14.00" text-anchor="middle" x="492" y="-423.3">output:</text>
<polyline fill="none" points="519.5,-415.5 519.5,-461.5 " stroke="black"/>
<text font-family="Times,serif" font-size="14.00" text-anchor="middle" x="582" y="-446.3">(None, 7, 7, 256)</text>
<polyline fill="none" points="519.5,-438.5 644.5,-438.5 " stroke="black"/>
<text font-family="Times,serif" font-size="14.00" text-anchor="middle" x="582" y="-423.3">(None, 14, 14, 256)</text>
</g>
<!-- 140312323696232&#45;&gt;140312323402888 -->
<g class="edge" id="edge13"><title>140312323696232-&gt;140312323402888</title>
<path d="M457.5,-498.366C457.5,-490.152 457.5,-480.658 457.5,-471.725" fill="none" stroke="black"/>
<polygon fill="black" points="461,-471.607 457.5,-461.607 454,-471.607 461,-471.607" stroke="black"/>
</g>
<!-- 140312323380504 -->
<g class="node" id="node15"><title>140312323380504</title>
<polygon fill="none" points="312.5,-332.5 312.5,-378.5 602.5,-378.5 602.5,-332.5 312.5,-332.5" stroke="black"/>
<text font-family="Times,serif" font-size="14.00" text-anchor="middle" x="367.5" y="-351.8">conv2d: Conv2D</text>
<polyline fill="none" points="422.5,-332.5 422.5,-378.5 " stroke="black"/>
<text font-family="Times,serif" font-size="14.00" text-anchor="middle" x="450" y="-363.3">input:</text>
<polyline fill="none" points="422.5,-355.5 477.5,-355.5 " stroke="black"/>
<text font-family="Times,serif" font-size="14.00" text-anchor="middle" x="450" y="-340.3">output:</text>
<polyline fill="none" points="477.5,-332.5 477.5,-378.5 " stroke="black"/>
<text font-family="Times,serif" font-size="14.00" text-anchor="middle" x="540" y="-363.3">(None, 14, 14, 256)</text>
<polyline fill="none" points="477.5,-355.5 602.5,-355.5 " stroke="black"/>
<text font-family="Times,serif" font-size="14.00" text-anchor="middle" x="540" y="-340.3">(None, 14, 14, 64)</text>
</g>
<!-- 140312323402888&#45;&gt;140312323380504 -->
<g class="edge" id="edge14"><title>140312323402888-&gt;140312323380504</title>
<path d="M457.5,-415.366C457.5,-407.152 457.5,-397.658 457.5,-388.725" fill="none" stroke="black"/>
<polygon fill="black" points="461,-388.607 457.5,-378.607 454,-388.607 461,-388.607" stroke="black"/>
</g>
<!-- 140312322587000 -->
<g class="node" id="node16"><title>140312322587000</title>
<polygon fill="none" points="297,-249.5 297,-295.5 618,-295.5 618,-249.5 297,-249.5" stroke="black"/>
<text font-family="Times,serif" font-size="14.00" text-anchor="middle" x="371" y="-268.8">activation_2: Activation</text>
<polyline fill="none" points="445,-249.5 445,-295.5 " stroke="black"/>
<text font-family="Times,serif" font-size="14.00" text-anchor="middle" x="472.5" y="-280.3">input:</text>
<polyline fill="none" points="445,-272.5 500,-272.5 " stroke="black"/>
<text font-family="Times,serif" font-size="14.00" text-anchor="middle" x="472.5" y="-257.3">output:</text>
<polyline fill="none" points="500,-249.5 500,-295.5 " stroke="black"/>
<text font-family="Times,serif" font-size="14.00" text-anchor="middle" x="559" y="-280.3">(None, 14, 14, 64)</text>
<polyline fill="none" points="500,-272.5 618,-272.5 " stroke="black"/>
<text font-family="Times,serif" font-size="14.00" text-anchor="middle" x="559" y="-257.3">(None, 14, 14, 64)</text>
</g>
<!-- 140312323380504&#45;&gt;140312322587000 -->
<g class="edge" id="edge15"><title>140312323380504-&gt;140312322587000</title>
<path d="M457.5,-332.366C457.5,-324.152 457.5,-314.658 457.5,-305.725" fill="none" stroke="black"/>
<polygon fill="black" points="461,-305.607 457.5,-295.607 454,-305.607 461,-305.607" stroke="black"/>
</g>
<!-- 140312322588232 -->
<g class="node" id="node17"><title>140312322588232</title>
<polygon fill="none" points="267.5,-166.5 267.5,-212.5 647.5,-212.5 647.5,-166.5 267.5,-166.5" stroke="black"/>
<text font-family="Times,serif" font-size="14.00" text-anchor="middle" x="371" y="-185.8">up_sampling2d_1: UpSampling2D</text>
<polyline fill="none" points="474.5,-166.5 474.5,-212.5 " stroke="black"/>
<text font-family="Times,serif" font-size="14.00" text-anchor="middle" x="502" y="-197.3">input:</text>
<polyline fill="none" points="474.5,-189.5 529.5,-189.5 " stroke="black"/>
<text font-family="Times,serif" font-size="14.00" text-anchor="middle" x="502" y="-174.3">output:</text>
<polyline fill="none" points="529.5,-166.5 529.5,-212.5 " stroke="black"/>
<text font-family="Times,serif" font-size="14.00" text-anchor="middle" x="588.5" y="-197.3">(None, 14, 14, 64)</text>
<polyline fill="none" points="529.5,-189.5 647.5,-189.5 " stroke="black"/>
<text font-family="Times,serif" font-size="14.00" text-anchor="middle" x="588.5" y="-174.3">(None, 28, 28, 64)</text>
</g>
<!-- 140312322587000&#45;&gt;140312322588232 -->
<g class="edge" id="edge16"><title>140312322587000-&gt;140312322588232</title>
<path d="M457.5,-249.366C457.5,-241.152 457.5,-231.658 457.5,-222.725" fill="none" stroke="black"/>
<polygon fill="black" points="461,-222.607 457.5,-212.607 454,-222.607 461,-222.607" stroke="black"/>
</g>
<!-- 140312322272784 -->
<g class="node" id="node18"><title>140312322272784</title>
<polygon fill="none" points="309.5,-83.5 309.5,-129.5 605.5,-129.5 605.5,-83.5 309.5,-83.5" stroke="black"/>
<text font-family="Times,serif" font-size="14.00" text-anchor="middle" x="371" y="-102.8">conv2d_1: Conv2D</text>
<polyline fill="none" points="432.5,-83.5 432.5,-129.5 " stroke="black"/>
<text font-family="Times,serif" font-size="14.00" text-anchor="middle" x="460" y="-114.3">input:</text>
<polyline fill="none" points="432.5,-106.5 487.5,-106.5 " stroke="black"/>
<text font-family="Times,serif" font-size="14.00" text-anchor="middle" x="460" y="-91.3">output:</text>
<polyline fill="none" points="487.5,-83.5 487.5,-129.5 " stroke="black"/>
<text font-family="Times,serif" font-size="14.00" text-anchor="middle" x="546.5" y="-114.3">(None, 28, 28, 64)</text>
<polyline fill="none" points="487.5,-106.5 605.5,-106.5 " stroke="black"/>
<text font-family="Times,serif" font-size="14.00" text-anchor="middle" x="546.5" y="-91.3">(None, 28, 28, 1)</text>
</g>
<!-- 140312322588232&#45;&gt;140312322272784 -->
<g class="edge" id="edge17"><title>140312322588232-&gt;140312322272784</title>
<path d="M457.5,-166.366C457.5,-158.152 457.5,-148.658 457.5,-139.725" fill="none" stroke="black"/>
<polygon fill="black" points="461,-139.607 457.5,-129.607 454,-139.607 461,-139.607" stroke="black"/>
</g>
<!-- 140312322199736 -->
<g class="node" id="node19"><title>140312322199736</title>
<polygon fill="none" points="300.5,-0.5 300.5,-46.5 614.5,-46.5 614.5,-0.5 300.5,-0.5" stroke="black"/>
<text font-family="Times,serif" font-size="14.00" text-anchor="middle" x="374.5" y="-19.8">activation_3: Activation</text>
<polyline fill="none" points="448.5,-0.5 448.5,-46.5 " stroke="black"/>
<text font-family="Times,serif" font-size="14.00" text-anchor="middle" x="476" y="-31.3">input:</text>
<polyline fill="none" points="448.5,-23.5 503.5,-23.5 " stroke="black"/>
<text font-family="Times,serif" font-size="14.00" text-anchor="middle" x="476" y="-8.3">output:</text>
<polyline fill="none" points="503.5,-0.5 503.5,-46.5 " stroke="black"/>
<text font-family="Times,serif" font-size="14.00" text-anchor="middle" x="559" y="-31.3">(None, 28, 28, 1)</text>
<polyline fill="none" points="503.5,-23.5 614.5,-23.5 " stroke="black"/>
<text font-family="Times,serif" font-size="14.00" text-anchor="middle" x="559" y="-8.3">(None, 28, 28, 1)</text>
</g>
<!-- 140312322272784&#45;&gt;140312322199736 -->
<g class="edge" id="edge18"><title>140312322272784-&gt;140312322199736</title>
<path d="M457.5,-83.3664C457.5,-75.1516 457.5,-65.6579 457.5,-56.7252" fill="none" stroke="black"/>
<polygon fill="black" points="461,-56.6068 457.5,-46.6068 454,-56.6069 461,-56.6068" stroke="black"/>
</g>
</g>
</svg>