<svg height="792pt" viewBox="0.00 0.00 435.00 792.00" width="435pt" xmlns="http://www.w3.org/2000/svg" xmlns:xlink="http://www.w3.org/1999/xlink">
<g class="graph" id="graph0" transform="scale(1 1) rotate(0) translate(4 788)">
<title>G</title>
<polygon fill="white" points="-4,4 -4,-788 431,-788 431,4 -4,4" stroke="none"/>
<!-- 140657811852928 -->
<g class="node" id="node1"><title>140657811852928</title>
<polygon fill="none" points="100,-664.5 100,-710.5 327,-710.5 327,-664.5 100,-664.5" stroke="black"/>
<text font-family="Times,serif" font-size="14.00" text-anchor="middle" x="144.5" y="-683.8">dense: Dense</text>
<polyline fill="none" points="189,-664.5 189,-710.5 " stroke="black"/>
<text font-family="Times,serif" font-size="14.00" text-anchor="middle" x="216.5" y="-695.3">input:</text>
<polyline fill="none" points="189,-687.5 244,-687.5 " stroke="black"/>
<text font-family="Times,serif" font-size="14.00" text-anchor="middle" x="216.5" y="-672.3">output:</text>
<polyline fill="none" points="244,-664.5 244,-710.5 " stroke="black"/>
<text font-family="Times,serif" font-size="14.00" text-anchor="middle" x="285.5" y="-695.3">(None, 100)</text>
<polyline fill="none" points="244,-687.5 327,-687.5 " stroke="black"/>
<text font-family="Times,serif" font-size="14.00" text-anchor="middle" x="285.5" y="-672.3">(None, 256)</text>
</g>
<!-- 140657811852480 -->
<g class="node" id="node2"><title>140657811852480</title>
<polygon fill="none" points="90.5,-581.5 90.5,-627.5 336.5,-627.5 336.5,-581.5 90.5,-581.5" stroke="black"/>
<text font-family="Times,serif" font-size="14.00" text-anchor="middle" x="141.5" y="-600.8">dense_1: Dense</text>
<polyline fill="none" points="192.5,-581.5 192.5,-627.5 " stroke="black"/>
<text font-family="Times,serif" font-size="14.00" text-anchor="middle" x="220" y="-612.3">input:</text>
<polyline fill="none" points="192.5,-604.5 247.5,-604.5 " stroke="black"/>
<text font-family="Times,serif" font-size="14.00" text-anchor="middle" x="220" y="-589.3">output:</text>
<polyline fill="none" points="247.5,-581.5 247.5,-627.5 " stroke="black"/>
<text font-family="Times,serif" font-size="14.00" text-anchor="middle" x="292" y="-612.3">(None, 256)</text>
<polyline fill="none" points="247.5,-604.5 336.5,-604.5 " stroke="black"/>
<text font-family="Times,serif" font-size="14.00" text-anchor="middle" x="292" y="-589.3">(None, 6272)</text>
</g>
<!-- 140657811852928&#45;&gt;140657811852480 -->
<g class="edge" id="edge2"><title>140657811852928-&gt;140657811852480</title>
<path d="M213.5,-664.366C213.5,-656.152 213.5,-646.658 213.5,-637.725" fill="none" stroke="black"/>
<polygon fill="black" points="217,-637.607 213.5,-627.607 210,-637.607 217,-637.607" stroke="black"/>
</g>
<!-- 140657811850072 -->
<g class="node" id="node3"><title>140657811850072</title>
<polygon fill="none" points="0,-498.5 0,-544.5 427,-544.5 427,-498.5 0,-498.5" stroke="black"/>
<text font-family="Times,serif" font-size="14.00" text-anchor="middle" x="141.5" y="-517.8">batch_normalization_v1: BatchNormalizationV1</text>
<polyline fill="none" points="283,-498.5 283,-544.5 " stroke="black"/>
<text font-family="Times,serif" font-size="14.00" text-anchor="middle" x="310.5" y="-529.3">input:</text>
<polyline fill="none" points="283,-521.5 338,-521.5 " stroke="black"/>
<text font-family="Times,serif" font-size="14.00" text-anchor="middle" x="310.5" y="-506.3">output:</text>
<polyline fill="none" points="338,-498.5 338,-544.5 " stroke="black"/>
<text font-family="Times,serif" font-size="14.00" text-anchor="middle" x="382.5" y="-529.3">(None, 6272)</text>
<polyline fill="none" points="338,-521.5 427,-521.5 " stroke="black"/>
<text font-family="Times,serif" font-size="14.00" text-anchor="middle" x="382.5" y="-506.3">(None, 6272)</text>
</g>
<!-- 140657811852480&#45;&gt;140657811850072 -->
<g class="edge" id="edge3"><title>140657811852480-&gt;140657811850072</title>
<path d="M213.5,-581.366C213.5,-573.152 213.5,-563.658 213.5,-554.725" fill="none" stroke="black"/>
<polygon fill="black" points="217,-554.607 213.5,-544.607 210,-554.607 217,-554.607" stroke="black"/>
</g>
<!-- 140657811850240 -->
<g class="node" id="node4"><title>140657811850240</title>
<polygon fill="none" points="74.5,-415.5 74.5,-461.5 352.5,-461.5 352.5,-415.5 74.5,-415.5" stroke="black"/>
<text font-family="Times,serif" font-size="14.00" text-anchor="middle" x="141.5" y="-434.8">activation: Activation</text>
<polyline fill="none" points="208.5,-415.5 208.5,-461.5 " stroke="black"/>
<text font-family="Times,serif" font-size="14.00" text-anchor="middle" x="236" y="-446.3">input:</text>
<polyline fill="none" points="208.5,-438.5 263.5,-438.5 " stroke="black"/>
<text font-family="Times,serif" font-size="14.00" text-anchor="middle" x="236" y="-423.3">output:</text>
<polyline fill="none" points="263.5,-415.5 263.5,-461.5 " stroke="black"/>
<text font-family="Times,serif" font-size="14.00" text-anchor="middle" x="308" y="-446.3">(None, 6272)</text>
<polyline fill="none" points="263.5,-438.5 352.5,-438.5 " stroke="black"/>
<text font-family="Times,serif" font-size="14.00" text-anchor="middle" x="308" y="-423.3">(None, 6272)</text>
</g>
<!-- 140657811850072&#45;&gt;140657811850240 -->
<g class="edge" id="edge4"><title>140657811850072-&gt;140657811850240</title>
<path d="M213.5,-498.366C213.5,-490.152 213.5,-480.658 213.5,-471.725" fill="none" stroke="black"/>
<polygon fill="black" points="217,-471.607 213.5,-461.607 210,-471.607 217,-471.607" stroke="black"/>
</g>
<!-- 140657811987200 -->
<g class="node" id="node5"><title>140657811987200</title>
<polygon fill="none" points="75,-332.5 75,-378.5 352,-378.5 352,-332.5 75,-332.5" stroke="black"/>
<text font-family="Times,serif" font-size="14.00" text-anchor="middle" x="130.5" y="-351.8">reshape: Reshape</text>
<polyline fill="none" points="186,-332.5 186,-378.5 " stroke="black"/>
<text font-family="Times,serif" font-size="14.00" text-anchor="middle" x="213.5" y="-363.3">input:</text>
<polyline fill="none" points="186,-355.5 241,-355.5 " stroke="black"/>
<text font-family="Times,serif" font-size="14.00" text-anchor="middle" x="213.5" y="-340.3">output:</text>
<polyline fill="none" points="241,-332.5 241,-378.5 " stroke="black"/>
<text font-family="Times,serif" font-size="14.00" text-anchor="middle" x="296.5" y="-363.3">(None, 6272)</text>
<polyline fill="none" points="241,-355.5 352,-355.5 " stroke="black"/>
<text font-family="Times,serif" font-size="14.00" text-anchor="middle" x="296.5" y="-340.3">(None, 7, 7, 128)</text>
</g>
<!-- 140657811850240&#45;&gt;140657811987200 -->
<g class="edge" id="edge5"><title>140657811850240-&gt;140657811987200</title>
<path d="M213.5,-415.366C213.5,-407.152 213.5,-397.658 213.5,-388.725" fill="none" stroke="black"/>
<polygon fill="black" points="217,-388.607 213.5,-378.607 210,-388.607 217,-388.607" stroke="black"/>
</g>
<!-- 140657811988376 -->
<g class="node" id="node6"><title>140657811988376</title>
<polygon fill="none" points="26.5,-249.5 26.5,-295.5 400.5,-295.5 400.5,-249.5 26.5,-249.5" stroke="black"/>
<text font-family="Times,serif" font-size="14.00" text-anchor="middle" x="123.5" y="-268.8">up_sampling2d: UpSampling2D</text>
<polyline fill="none" points="220.5,-249.5 220.5,-295.5 " stroke="black"/>
<text font-family="Times,serif" font-size="14.00" text-anchor="middle" x="248" y="-280.3">input:</text>
<polyline fill="none" points="220.5,-272.5 275.5,-272.5 " stroke="black"/>
<text font-family="Times,serif" font-size="14.00" text-anchor="middle" x="248" y="-257.3">output:</text>
<polyline fill="none" points="275.5,-249.5 275.5,-295.5 " stroke="black"/>
<text font-family="Times,serif" font-size="14.00" text-anchor="middle" x="338" y="-280.3">(None, 7, 7, 128)</text>
<polyline fill="none" points="275.5,-272.5 400.5,-272.5 " stroke="black"/>
<text font-family="Times,serif" font-size="14.00" text-anchor="middle" x="338" y="-257.3">(None, 14, 14, 128)</text>
</g>
<!-- 140657811987200&#45;&gt;140657811988376 -->
<g class="edge" id="edge6"><title>140657811987200-&gt;140657811988376</title>
<path d="M213.5,-332.366C213.5,-324.152 213.5,-314.658 213.5,-305.725" fill="none" stroke="black"/>
<polygon fill="black" points="217,-305.607 213.5,-295.607 210,-305.607 217,-305.607" stroke="black"/>
</g>
<!-- 140657811986304 -->
<g class="node" id="node7"><title>140657811986304</title>
<polygon fill="none" points="68.5,-166.5 68.5,-212.5 358.5,-212.5 358.5,-166.5 68.5,-166.5" stroke="black"/>
<text font-family="Times,serif" font-size="14.00" text-anchor="middle" x="123.5" y="-185.8">conv2d: Conv2D</text>
<polyline fill="none" points="178.5,-166.5 178.5,-212.5 " stroke="black"/>
<text font-family="Times,serif" font-size="14.00" text-anchor="middle" x="206" y="-197.3">input:</text>
<polyline fill="none" points="178.5,-189.5 233.5,-189.5 " stroke="black"/>
<text font-family="Times,serif" font-size="14.00" text-anchor="middle" x="206" y="-174.3">output:</text>
<polyline fill="none" points="233.5,-166.5 233.5,-212.5 " stroke="black"/>
<text font-family="Times,serif" font-size="14.00" text-anchor="middle" x="296" y="-197.3">(None, 14, 14, 128)</text>
<polyline fill="none" points="233.5,-189.5 358.5,-189.5 " stroke="black"/>
<text font-family="Times,serif" font-size="14.00" text-anchor="middle" x="296" y="-174.3">(None, 14, 14, 64)</text>
</g>
<!-- 140657811988376&#45;&gt;140657811986304 -->
<g class="edge" id="edge7"><title>140657811988376-&gt;140657811986304</title>
<path d="M213.5,-249.366C213.5,-241.152 213.5,-231.658 213.5,-222.725" fill="none" stroke="black"/>
<polygon fill="black" points="217,-222.607 213.5,-212.607 210,-222.607 217,-222.607" stroke="black"/>
</g>
<!-- 140657796799456 -->
<g class="node" id="node8"><title>140657796799456</title>
<polygon fill="none" points="23.5,-83.5 23.5,-129.5 403.5,-129.5 403.5,-83.5 23.5,-83.5" stroke="black"/>
<text font-family="Times,serif" font-size="14.00" text-anchor="middle" x="127" y="-102.8">up_sampling2d_1: UpSampling2D</text>
<polyline fill="none" points="230.5,-83.5 230.5,-129.5 " stroke="black"/>
<text font-family="Times,serif" font-size="14.00" text-anchor="middle" x="258" y="-114.3">input:</text>
<polyline fill="none" points="230.5,-106.5 285.5,-106.5 " stroke="black"/>
<text font-family="Times,serif" font-size="14.00" text-anchor="middle" x="258" y="-91.3">output:</text>
<polyline fill="none" points="285.5,-83.5 285.5,-129.5 " stroke="black"/>
<text font-family="Times,serif" font-size="14.00" text-anchor="middle" x="344.5" y="-114.3">(None, 14, 14, 64)</text>
<polyline fill="none" points="285.5,-106.5 403.5,-106.5 " stroke="black"/>
<text font-family="Times,serif" font-size="14.00" text-anchor="middle" x="344.5" y="-91.3">(None, 28, 28, 64)</text>
</g>
<!-- 140657811986304&#45;&gt;140657796799456 -->
<g class="edge" id="edge8"><title>140657811986304-&gt;140657796799456</title>
<path d="M213.5,-166.366C213.5,-158.152 213.5,-148.658 213.5,-139.725" fill="none" stroke="black"/>
<polygon fill="black" points="217,-139.607 213.5,-129.607 210,-139.607 217,-139.607" stroke="black"/>
</g>
<!-- 140657796799680 -->
<g class="node" id="node9"><title>140657796799680</title>
<polygon fill="none" points="65.5,-0.5 65.5,-46.5 361.5,-46.5 361.5,-0.5 65.5,-0.5" stroke="black"/>
<text font-family="Times,serif" font-size="14.00" text-anchor="middle" x="127" y="-19.8">conv2d_1: Conv2D</text>
<polyline fill="none" points="188.5,-0.5 188.5,-46.5 " stroke="black"/>
<text font-family="Times,serif" font-size="14.00" text-anchor="middle" x="216" y="-31.3">input:</text>
<polyline fill="none" points="188.5,-23.5 243.5,-23.5 " stroke="black"/>
<text font-family="Times,serif" font-size="14.00" text-anchor="middle" x="216" y="-8.3">output:</text>
<polyline fill="none" points="243.5,-0.5 243.5,-46.5 " stroke="black"/>
<text font-family="Times,serif" font-size="14.00" text-anchor="middle" x="302.5" y="-31.3">(None, 28, 28, 64)</text>
<polyline fill="none" points="243.5,-23.5 361.5,-23.5 " stroke="black"/>
<text font-family="Times,serif" font-size="14.00" text-anchor="middle" x="302.5" y="-8.3">(None, 28, 28, 1)</text>
</g>
<!-- 140657796799456&#45;&gt;140657796799680 -->
<g class="edge" id="edge9"><title>140657796799456-&gt;140657796799680</title>
<path d="M213.5,-83.3664C213.5,-75.1516 213.5,-65.6579 213.5,-56.7252" fill="none" stroke="black"/>
<polygon fill="black" points="217,-56.6068 213.5,-46.6068 210,-56.6069 217,-56.6068" stroke="black"/>
</g>
<!-- 140657796800072 -->
<g class="node" id="node10"><title>140657796800072</title>
<polygon fill="none" points="154.5,-747.5 154.5,-783.5 272.5,-783.5 272.5,-747.5 154.5,-747.5" stroke="black"/>
<text font-family="Times,serif" font-size="14.00" text-anchor="middle" x="213.5" y="-761.8">140657796800072</text>
</g>
<!-- 140657796800072&#45;&gt;140657811852928 -->
<g class="edge" id="edge1"><title>140657796800072-&gt;140657811852928</title>
<path d="M213.5,-747.254C213.5,-739.363 213.5,-729.749 213.5,-720.602" fill="none" stroke="black"/>
<polygon fill="black" points="217,-720.591 213.5,-710.591 210,-720.591 217,-720.591" stroke="black"/>
</g>
</g>
</svg>