<svg height="221pt" viewBox="0.00 0.00 613.50 221.00" width="614pt" xmlns="http://www.w3.org/2000/svg" xmlns:xlink="http://www.w3.org/1999/xlink">
<g class="graph" id="graph0" transform="scale(1 1) rotate(0) translate(4 217)">
<title>G</title>
<polygon fill="white" points="-4,4 -4,-217 609.5,-217 609.5,4 -4,4" stroke="none"/>
<!-- 140314030117832 -->
<g class="node" id="node1"><title>140314030117832</title>
<polygon fill="none" points="0,-166.5 0,-212.5 282,-212.5 282,-166.5 0,-166.5" stroke="black"/>
<text font-family="Times,serif" font-size="14.00" text-anchor="middle" x="72" y="-185.8">NoiseInput: InputLayer</text>
<polyline fill="none" points="144,-166.5 144,-212.5 " stroke="black"/>
<text font-family="Times,serif" font-size="14.00" text-anchor="middle" x="171.5" y="-197.3">input:</text>
<polyline fill="none" points="144,-189.5 199,-189.5 " stroke="black"/>
<text font-family="Times,serif" font-size="14.00" text-anchor="middle" x="171.5" y="-174.3">output:</text>
<polyline fill="none" points="199,-166.5 199,-212.5 " stroke="black"/>
<text font-family="Times,serif" font-size="14.00" text-anchor="middle" x="240.5" y="-197.3">(None, 100)</text>
<polyline fill="none" points="199,-189.5 282,-189.5 " stroke="black"/>
<text font-family="Times,serif" font-size="14.00" text-anchor="middle" x="240.5" y="-174.3">(None, 100)</text>
</g>
<!-- 140312322201752 -->
<g class="node" id="node3"><title>140312322201752</title>
<polygon fill="none" points="91,-83.5 91,-129.5 425,-129.5 425,-83.5 91,-83.5" stroke="black"/>
<text font-family="Times,serif" font-size="14.00" text-anchor="middle" x="148" y="-102.8">Generator: Model</text>
<polyline fill="none" points="205,-83.5 205,-129.5 " stroke="black"/>
<text font-family="Times,serif" font-size="14.00" text-anchor="middle" x="232.5" y="-114.3">input:</text>
<polyline fill="none" points="205,-106.5 260,-106.5 " stroke="black"/>
<text font-family="Times,serif" font-size="14.00" text-anchor="middle" x="232.5" y="-91.3">output:</text>
<polyline fill="none" points="260,-83.5 260,-129.5 " stroke="black"/>
<text font-family="Times,serif" font-size="14.00" text-anchor="middle" x="342.5" y="-114.3">[(None, 100), (None, 100)]</text>
<polyline fill="none" points="260,-106.5 425,-106.5 " stroke="black"/>
<text font-family="Times,serif" font-size="14.00" text-anchor="middle" x="342.5" y="-91.3">(None, 28, 28, 1)</text>
</g>
<!-- 140314030117832&#45;&gt;140312322201752 -->
<g class="edge" id="edge1"><title>140314030117832-&gt;140312322201752</title>
<path d="M172.971,-166.366C186.771,-156.812 203.07,-145.528 217.688,-135.409" fill="none" stroke="black"/>
<polygon fill="black" points="219.838,-138.177 226.068,-129.607 215.854,-132.421 219.838,-138.177" stroke="black"/>
</g>
<!-- 140314597677600 -->
<g class="node" id="node2"><title>140314597677600</title>
<polygon fill="none" points="300.5,-166.5 300.5,-212.5 605.5,-212.5 605.5,-166.5 300.5,-166.5" stroke="black"/>
<text font-family="Times,serif" font-size="14.00" text-anchor="middle" x="384" y="-185.8">ConditionInput: InputLayer</text>
<polyline fill="none" points="467.5,-166.5 467.5,-212.5 " stroke="black"/>
<text font-family="Times,serif" font-size="14.00" text-anchor="middle" x="495" y="-197.3">input:</text>
<polyline fill="none" points="467.5,-189.5 522.5,-189.5 " stroke="black"/>
<text font-family="Times,serif" font-size="14.00" text-anchor="middle" x="495" y="-174.3">output:</text>
<polyline fill="none" points="522.5,-166.5 522.5,-212.5 " stroke="black"/>
<text font-family="Times,serif" font-size="14.00" text-anchor="middle" x="564" y="-197.3">(None, 100)</text>
<polyline fill="none" points="522.5,-189.5 605.5,-189.5 " stroke="black"/>
<text font-family="Times,serif" font-size="14.00" text-anchor="middle" x="564" y="-174.3">(None, 100)</text>
</g>
<!-- 140314597677600&#45;&gt;140312322201752 -->
<g class="edge" id="edge2"><title>140314597677600-&gt;140312322201752</title>
<path d="M399.973,-166.473C375.364,-156.251 345.944,-144.031 320.284,-133.372" fill="none" stroke="black"/>
<polygon fill="black" points="321.594,-130.126 311.016,-129.522 318.909,-136.591 321.594,-130.126" stroke="black"/>
</g>
<!-- 140312321019744 -->
<g class="node" id="node4"><title>140312321019744</title>
<polygon fill="none" points="162.5,-0.5 162.5,-46.5 547.5,-46.5 547.5,-0.5 162.5,-0.5" stroke="black"/>
<text font-family="Times,serif" font-size="14.00" text-anchor="middle" x="230.5" y="-19.8">Discriminator: Model</text>
<polyline fill="none" points="298.5,-0.5 298.5,-46.5 " stroke="black"/>
<text font-family="Times,serif" font-size="14.00" text-anchor="middle" x="326" y="-31.3">input:</text>
<polyline fill="none" points="298.5,-23.5 353.5,-23.5 " stroke="black"/>
<text font-family="Times,serif" font-size="14.00" text-anchor="middle" x="326" y="-8.3">output:</text>
<polyline fill="none" points="353.5,-0.5 353.5,-46.5 " stroke="black"/>
<text font-family="Times,serif" font-size="14.00" text-anchor="middle" x="450.5" y="-31.3">[(None, 28, 28, 1), (None, 100)]</text>
<polyline fill="none" points="353.5,-23.5 547.5,-23.5 " stroke="black"/>
<text font-family="Times,serif" font-size="14.00" text-anchor="middle" x="450.5" y="-8.3">(None, 1)</text>
</g>
<!-- 140314597677600&#45;&gt;140312321019744 -->
<g class="edge" id="edge4"><title>140314597677600-&gt;140312321019744</title>
<path d="M453.624,-166.213C453.248,-143.619 449.809,-108.453 434,-83 426.682,-71.2174 416.048,-61.0199 404.941,-52.5886" fill="none" stroke="black"/>
<polygon fill="black" points="406.978,-49.7427 396.811,-46.7641 402.902,-55.4331 406.978,-49.7427" stroke="black"/>
</g>
<!-- 140312322201752&#45;&gt;140312321019744 -->
<g class="edge" id="edge3"><title>140312322201752-&gt;140312321019744</title>
<path d="M284.506,-83.3664C295.626,-74.0802 308.704,-63.1595 320.556,-53.2625" fill="none" stroke="black"/>
<polygon fill="black" points="323.094,-55.703 328.526,-46.6068 318.607,-50.33 323.094,-55.703" stroke="black"/>
</g>
</g>
</svg>