<svg height="221pt" viewBox="0.00 0.00 323.00 221.00" width="323pt" xmlns="http://www.w3.org/2000/svg" xmlns:xlink="http://www.w3.org/1999/xlink">
<g class="graph" id="graph0" transform="scale(1 1) rotate(0) translate(4 217)">
<title>G</title>
<polygon fill="white" points="-4,4 -4,-217 319,-217 319,4 -4,4" stroke="none"/>
<!-- 140657796800184 -->
<g class="node" id="node1"><title>140657796800184</title>
<polygon fill="none" points="26,-166.5 26,-212.5 289,-212.5 289,-166.5 26,-166.5" stroke="black"/>
<text font-family="Times,serif" font-size="14.00" text-anchor="middle" x="88.5" y="-185.8">input_1: InputLayer</text>
<polyline fill="none" points="151,-166.5 151,-212.5 " stroke="black"/>
<text font-family="Times,serif" font-size="14.00" text-anchor="middle" x="178.5" y="-197.3">input:</text>
<polyline fill="none" points="151,-189.5 206,-189.5 " stroke="black"/>
<text font-family="Times,serif" font-size="14.00" text-anchor="middle" x="178.5" y="-174.3">output:</text>
<polyline fill="none" points="206,-166.5 206,-212.5 " stroke="black"/>
<text font-family="Times,serif" font-size="14.00" text-anchor="middle" x="247.5" y="-197.3">(None, 100)</text>
<polyline fill="none" points="206,-189.5 289,-189.5 " stroke="black"/>
<text font-family="Times,serif" font-size="14.00" text-anchor="middle" x="247.5" y="-174.3">(None, 100)</text>
</g>
<!-- 140657796799512 -->
<g class="node" id="node2"><title>140657796799512</title>
<polygon fill="none" points="6.5,-83.5 6.5,-129.5 308.5,-129.5 308.5,-83.5 6.5,-83.5" stroke="black"/>
<text font-family="Times,serif" font-size="14.00" text-anchor="middle" x="74.5" y="-102.8">sequential: Sequential</text>
<polyline fill="none" points="142.5,-83.5 142.5,-129.5 " stroke="black"/>
<text font-family="Times,serif" font-size="14.00" text-anchor="middle" x="170" y="-114.3">input:</text>
<polyline fill="none" points="142.5,-106.5 197.5,-106.5 " stroke="black"/>
<text font-family="Times,serif" font-size="14.00" text-anchor="middle" x="170" y="-91.3">output:</text>
<polyline fill="none" points="197.5,-83.5 197.5,-129.5 " stroke="black"/>
<text font-family="Times,serif" font-size="14.00" text-anchor="middle" x="253" y="-114.3">(None, 100)</text>
<polyline fill="none" points="197.5,-106.5 308.5,-106.5 " stroke="black"/>
<text font-family="Times,serif" font-size="14.00" text-anchor="middle" x="253" y="-91.3">(None, 28, 28, 1)</text>
</g>
<!-- 140657796800184&#45;&gt;140657796799512 -->
<g class="edge" id="edge1"><title>140657796800184-&gt;140657796799512</title>
<path d="M157.5,-166.366C157.5,-158.152 157.5,-148.658 157.5,-139.725" fill="none" stroke="black"/>
<polygon fill="black" points="161,-139.607 157.5,-129.607 154,-139.607 161,-139.607" stroke="black"/>
</g>
<!-- 140657793420368 -->
<g class="node" id="node3"><title>140657793420368</title>
<polygon fill="none" points="0,-0.5 0,-46.5 315,-46.5 315,-0.5 0,-0.5" stroke="black"/>
<text font-family="Times,serif" font-size="14.00" text-anchor="middle" x="74.5" y="-19.8">sequential_1: Sequential</text>
<polyline fill="none" points="149,-0.5 149,-46.5 " stroke="black"/>
<text font-family="Times,serif" font-size="14.00" text-anchor="middle" x="176.5" y="-31.3">input:</text>
<polyline fill="none" points="149,-23.5 204,-23.5 " stroke="black"/>
<text font-family="Times,serif" font-size="14.00" text-anchor="middle" x="176.5" y="-8.3">output:</text>
<polyline fill="none" points="204,-0.5 204,-46.5 " stroke="black"/>
<text font-family="Times,serif" font-size="14.00" text-anchor="middle" x="259.5" y="-31.3">(None, 28, 28, 1)</text>
<polyline fill="none" points="204,-23.5 315,-23.5 " stroke="black"/>
<text font-family="Times,serif" font-size="14.00" text-anchor="middle" x="259.5" y="-8.3">(None, 1)</text>
</g>
<!-- 140657796799512&#45;&gt;140657793420368 -->
<g class="edge" id="edge2"><title>140657796799512-&gt;140657793420368</title>
<path d="M157.5,-83.3664C157.5,-75.1516 157.5,-65.6579 157.5,-56.7252" fill="none" stroke="black"/>
<polygon fill="black" points="161,-56.6068 157.5,-46.6068 154,-56.6069 161,-56.6068" stroke="black"/>
</g>
</g>
</svg>