<svg height="221pt" viewBox="0.00 0.00 303.00 221.00" width="303pt" xmlns="http://www.w3.org/2000/svg" xmlns:xlink="http://www.w3.org/1999/xlink">
<g class="graph" id="graph0" transform="scale(1 1) rotate(0) translate(4 217)">
<title>G</title>
<polygon fill="white" points="-4,4 -4,-217 299,-217 299,4 -4,4" stroke="none"/>
<!-- 140039832346128 -->
<g class="node" id="node1"><title>140039832346128</title>
<polygon fill="none" points="16,-166.5 16,-212.5 279,-212.5 279,-166.5 16,-166.5" stroke="black"/>
<text font-family="Times,serif" font-size="14.00" text-anchor="middle" x="78.5" y="-185.8">input_1: InputLayer</text>
<polyline fill="none" points="141,-166.5 141,-212.5 " stroke="black"/>
<text font-family="Times,serif" font-size="14.00" text-anchor="middle" x="168.5" y="-197.3">input:</text>
<polyline fill="none" points="141,-189.5 196,-189.5 " stroke="black"/>
<text font-family="Times,serif" font-size="14.00" text-anchor="middle" x="168.5" y="-174.3">output:</text>
<polyline fill="none" points="196,-166.5 196,-212.5 " stroke="black"/>
<text font-family="Times,serif" font-size="14.00" text-anchor="middle" x="237.5" y="-197.3">(None, 100)</text>
<polyline fill="none" points="196,-189.5 279,-189.5 " stroke="black"/>
<text font-family="Times,serif" font-size="14.00" text-anchor="middle" x="237.5" y="-174.3">(None, 100)</text>
</g>
<!-- 140039836790008 -->
<g class="node" id="node2"><title>140039836790008</title>
<polygon fill="none" points="11,-83.5 11,-129.5 284,-129.5 284,-83.5 11,-83.5" stroke="black"/>
<text font-family="Times,serif" font-size="14.00" text-anchor="middle" x="78.5" y="-102.8">Generator: Sequential</text>
<polyline fill="none" points="146,-83.5 146,-129.5 " stroke="black"/>
<text font-family="Times,serif" font-size="14.00" text-anchor="middle" x="173.5" y="-114.3">input:</text>
<polyline fill="none" points="146,-106.5 201,-106.5 " stroke="black"/>
<text font-family="Times,serif" font-size="14.00" text-anchor="middle" x="173.5" y="-91.3">output:</text>
<polyline fill="none" points="201,-83.5 201,-129.5 " stroke="black"/>
<text font-family="Times,serif" font-size="14.00" text-anchor="middle" x="242.5" y="-114.3">(None, 100)</text>
<polyline fill="none" points="201,-106.5 284,-106.5 " stroke="black"/>
<text font-family="Times,serif" font-size="14.00" text-anchor="middle" x="242.5" y="-91.3">(None, 784)</text>
</g>
<!-- 140039832346128&#45;&gt;140039836790008 -->
<g class="edge" id="edge1"><title>140039832346128-&gt;140039836790008</title>
<path d="M147.5,-166.366C147.5,-158.152 147.5,-148.658 147.5,-139.725" fill="none" stroke="black"/>
<polygon fill="black" points="151,-139.607 147.5,-129.607 144,-139.607 151,-139.607" stroke="black"/>
</g>
<!-- 140039834316024 -->
<g class="node" id="node3"><title>140039834316024</title>
<polygon fill="none" points="0,-0.5 0,-46.5 295,-46.5 295,-0.5 0,-0.5" stroke="black"/>
<text font-family="Times,serif" font-size="14.00" text-anchor="middle" x="78.5" y="-19.8">Discriminator: Sequential</text>
<polyline fill="none" points="157,-0.5 157,-46.5 " stroke="black"/>
<text font-family="Times,serif" font-size="14.00" text-anchor="middle" x="184.5" y="-31.3">input:</text>
<polyline fill="none" points="157,-23.5 212,-23.5 " stroke="black"/>
<text font-family="Times,serif" font-size="14.00" text-anchor="middle" x="184.5" y="-8.3">output:</text>
<polyline fill="none" points="212,-0.5 212,-46.5 " stroke="black"/>
<text font-family="Times,serif" font-size="14.00" text-anchor="middle" x="253.5" y="-31.3">(None, 784)</text>
<polyline fill="none" points="212,-23.5 295,-23.5 " stroke="black"/>
<text font-family="Times,serif" font-size="14.00" text-anchor="middle" x="253.5" y="-8.3">(None, 1)</text>
</g>
<!-- 140039836790008&#45;&gt;140039834316024 -->
<g class="edge" id="edge2"><title>140039836790008-&gt;140039834316024</title>
<path d="M147.5,-83.3664C147.5,-75.1516 147.5,-65.6579 147.5,-56.7252" fill="none" stroke="black"/>
<polygon fill="black" points="151,-56.6068 147.5,-46.6068 144,-56.6069 151,-56.6068" stroke="black"/>
</g>
</g>
</svg>